<?xml version="1.0" encoding="UTF-8"?>
<svg xmlns="http://www.w3.org/2000/svg"
     width="1008" height="1800"
     viewBox="0 0 1008 1800">
  <rect width="100%" height="100%" fill="white"/>
  <path d="M 60.00,1740.00 L 60.00,108.00 L 65.10,108.04 L 70.12,108.15 L 75.07,108.32 L 79.94,108.57 L 84.75,108.87 L 89.48,109.24 L 94.15,109.65 L 98.74,110.12 L 103.27,110.64 L 107.73,111.20 L 112.12,111.80 L 116.45,112.44 L 120.71,113.12 L 124.91,113.82 L 129.05,114.56 L 133.12,115.31 L 137.13,116.09 L 141.08,116.88 L 144.97,117.69 L 148.81,118.50 L 152.58,119.33 L 156.29,120.15 L 159.95,120.98 L 163.56,121.80 L 167.11,122.61 L 170.60,123.42 L 174.04,124.21 L 177.43,124.98 L 180.77,125.73 L 184.05,126.45 L 187.29,127.15 L 190.48,127.82 L 193.61,128.45 L 196.71,129.04 L 199.75,129.59 L 202.75,130.10 L 205.70,130.56 L 208.61,130.96 L 211.48,131.31 L 214.30,131.60 L 217.08,131.83 L 219.82,131.99 L 222.52,132.08 L 225.18,132.10 L 227.80,132.04 L 230.39,131.91 L 232.94,131.69 L 235.45,131.38 L 237.93,130.98 L 240.37,130.49 L 242.78,129.90 L 245.16,129.21 L 247.50,128.42 L 249.81,127.52 L 252.10,126.51 L 254.35,125.39 L 256.58,124.14 L 258.78,122.78 L 260.95,121.29 L 263.09,119.67 L 265.21,117.92 L 267.31,116.04 L 269.38,114.02 L 271.43,111.85 L 273.46,109.54 L 275.46,107.08 L 277.45,104.47 L 279.41,101.71 L 281.36,98.78 L 283.29,95.69 L 285.21,92.44 L 287.10,89.01 L 288.98,85.41 L 290.85,81.64 L 292.71,77.68 L 294.55,73.55 L 296.38,69.22 L 298.19,64.71 L 300.00,60.00 L 749.44,228.54 L 684.00,492.00 L 681.83,501.31 L 680.02,510.27 L 678.57,518.88 L 677.47,527.17 L 676.70,535.14 L 676.27,542.79 L 676.15,550.14 L 676.35,557.19 L 676.85,563.96 L 677.65,570.45 L 678.73,576.68 L 680.09,582.65 L 681.72,588.37 L 683.61,593.85 L 685.75,599.10 L 688.13,604.13 L 690.74,608.95 L 693.59,613.57 L 696.65,617.99 L 699.91,622.23 L 703.38,626.29 L 707.04,630.19 L 710.87,633.92 L 714.89,637.52 L 719.06,640.97 L 723.39,644.29 L 727.87,647.50 L 732.49,650.59 L 737.24,653.58 L 742.11,656.48 L 747.09,659.30 L 752.17,662.04 L 757.35,664.71 L 762.62,667.33 L 767.96,669.91 L 773.37,672.44 L 778.85,674.95 L 784.37,677.44 L 789.94,679.92 L 795.54,682.39 L 801.17,684.88 L 806.81,687.38 L 812.46,689.91 L 818.11,692.47 L 823.75,695.08 L 829.38,697.75 L 834.98,700.47 L 840.54,703.27 L 846.05,706.15 L 851.52,709.13 L 856.92,712.20 L 862.26,715.38 L 867.51,718.68 L 872.68,722.10 L 877.75,725.67 L 882.72,729.38 L 887.57,733.24 L 892.30,737.27 L 896.90,741.47 L 901.36,745.85 L 905.67,750.43 L 909.82,755.20 L 913.81,760.19 L 917.63,765.39 L 921.26,770.83 L 924.70,776.50 L 927.93,782.42 L 930.96,788.59 L 933.78,795.03 L 936.36,801.74 L 938.71,808.74 L 940.82,816.02 L 942.67,823.61 L 944.26,831.51 L 945.59,839.73 L 946.63,848.28 L 947.38,857.17 L 947.84,866.41 L 948.00,876.00 L 756.00,1630.19 L 756.00,1740.00 L 408.00,1740.00 L 336.00,876.00 L 264.00,1740.00 L 60.00,1740.00 Z"
        fill="#dce8f5" stroke="#2255aa" stroke-width="1.5"
        stroke-linejoin="round" opacity="0.85"/>
  <circle cx="60.0" cy="1740.0" r="2.5" fill="black"/>
  <text x="64.0" y="1736.0"
        font-family="monospace" font-size="9" fill="#333">B</text>
  <circle cx="60.0" cy="108.0" r="2.5" fill="black"/>
  <text x="64.0" y="104.0"
        font-family="monospace" font-size="9" fill="#333">A</text>
  <circle cx="300.0" cy="60.0" r="2.5" fill="black"/>
  <text x="304.0" y="56.0"
        font-family="monospace" font-size="9" fill="#333">AA</text>
  <circle cx="749.4" cy="228.5" r="2.5" fill="black"/>
  <text x="753.4" y="224.5"
        font-family="monospace" font-size="9" fill="#333">DD</text>
  <circle cx="684.0" cy="492.0" r="2.5" fill="black"/>
  <text x="688.0" y="488.0"
        font-family="monospace" font-size="9" fill="#333">BB</text>
  <circle cx="948.0" cy="876.0" r="2.5" fill="black"/>
  <text x="952.0" y="872.0"
        font-family="monospace" font-size="9" fill="#333">O</text>
  <circle cx="756.0" cy="1630.2" r="2.5" fill="black"/>
  <text x="760.0" y="1626.2"
        font-family="monospace" font-size="9" fill="#333">FF</text>
  <circle cx="756.0" cy="1740.0" r="2.5" fill="black"/>
  <text x="760.0" y="1736.0"
        font-family="monospace" font-size="9" fill="#333">EE</text>
  <circle cx="60.0" cy="1630.2" r="2.5" fill="black"/>
  <text x="64.0" y="1626.2"
        font-family="monospace" font-size="9" fill="#333">GG</text>
  <circle cx="264.0" cy="1740.0" r="2.5" fill="black"/>
  <text x="268.0" y="1736.0"
        font-family="monospace" font-size="9" fill="#333">H</text>
  <circle cx="408.0" cy="1740.0" r="2.5" fill="black"/>
  <text x="412.0" y="1736.0"
        font-family="monospace" font-size="9" fill="#333">I</text>
  <circle cx="336.0" cy="876.0" r="2.5" fill="black"/>
  <text x="340.0" y="872.0"
        font-family="monospace" font-size="9" fill="#333">J</text>
</svg>