<?xml version="1.0" encoding="UTF-8"?>
<svg xmlns="http://www.w3.org/2000/svg"
     width="1968" height="1940"
     viewBox="0 0 1968 1940">
  <rect width="100%" height="100%" fill="white"/>
  <defs>
    <clipPath id="bodice-clip">
      <path d="M 1836.00,415.63 L 1836.00,1807.63 L 1476.00,1807.63 L 1452.00,1168.32 L 1428.00,1807.63 L 996.00,1807.63 L 948.00,1216.32 L 1404.00,1072.32 L 948.00,1120.32 L 948.00,943.63 L 1546.38,577.72 L 1541.65,595.44 L 1534.00,612.79 L 1523.63,629.76 L 1510.74,646.36 L 1495.50,662.57 L 1478.12,678.38 L 1458.79,693.80 L 1437.71,708.81 L 1415.06,723.42 L 1391.04,737.61 L 1365.85,751.38 L 1339.68,764.72 L 1312.71,777.63 L 1285.15,790.11 L 1257.19,802.14 L 1229.02,813.72 L 1200.84,824.85 L 1172.83,835.52 L 1145.20,845.72 L 1118.13,855.45 L 1091.81,864.70 L 1066.45,873.48 L 1042.24,881.76 L 1019.36,889.55 L 998.02,896.84 L 978.40,903.63 L 960.70,909.90 L 945.12,915.66 L 931.84,920.90 L 921.06,925.61 L 912.97,929.79 L 907.77,933.43 L 905.65,936.52 L 906.80,939.07 L 911.41,941.05 L 919.69,942.48 L 931.82,943.34 L 948.00,943.63 L 1114.72,313.93 L 1126.96,319.91 L 1139.69,325.60 L 1152.87,331.03 L 1166.45,336.22 L 1180.40,341.21 L 1194.66,346.01 L 1209.19,350.65 L 1223.94,355.16 L 1238.88,359.57 L 1253.95,363.89 L 1269.11,368.17 L 1284.31,372.42 L 1299.52,376.67 L 1314.68,380.94 L 1329.75,385.27 L 1344.68,389.68 L 1359.44,394.19 L 1373.97,398.83 L 1388.23,403.63 L 1402.17,408.61 L 1415.76,413.81 L 1428.94,419.24 L 1441.67,424.93 L 1453.90,430.91 L 1465.60,437.20 L 1476.71,443.84 L 1487.19,450.84 L 1496.99,458.24 L 1506.08,466.06 L 1514.39,474.32 L 1521.90,483.06 L 1528.56,492.29 L 1534.31,502.05 L 1539.12,512.36 L 1542.94,523.25 L 1545.72,534.74 L 1547.42,546.86 L 1548.00,559.63 L 1103.03,307.63 L 1548.00,127.63 Q 1548.00,415.63 1836.00,415.63 Z"/>
    </clipPath>
  </defs>
  <path d="M 1908.00,415.63 L 1908.00,1807.63 M 1836.00,1879.63 L 1476.00,1879.63 M 1428.00,1879.63 L 996.00,1879.63 M 924.24,1813.46 L 876.24,1222.15 M 876.00,1120.32 L 876.00,943.63 M 1619.71,566.07 L 1609.38,619.86 M 1609.38,619.86 L 1582.12,671.74 M 1582.12,671.74 L 1538.53,720.78 M 1538.53,720.78 L 1480.78,764.02 M 1480.78,764.02 L 1414.26,798.99 M 1414.26,798.99 L 1344.99,826.51 M 1344.99,826.51 L 1276.35,849.32 M 1276.35,849.32 L 1209.51,869.51 M 1209.51,869.51 L 1145.04,888.08 M 1145.04,888.08 L 1083.71,905.30 M 1083.71,905.30 L 1026.55,921.20 M 1026.55,921.20 L 974.83,935.69 M 974.83,935.69 L 929.96,948.66 M 929.96,948.66 L 893.47,960.03 M 893.47,960.03 L 866.95,969.72 M 866.95,969.72 L 852.03,977.69 M 852.03,977.69 L 850.40,983.94 M 850.40,983.94 L 863.84,988.50 M 863.84,988.50 L 894.20,991.48 M 1047.23,262.13 L 1072.58,273.80 M 1072.58,273.80 L 1100.48,283.73 M 1100.48,283.73 L 1130.67,292.13 M 1130.67,292.13 L 1162.92,299.19 M 1162.92,299.19 L 1197.08,305.12 M 1197.08,305.12 L 1233.10,310.19 M 1233.10,310.19 L 1271.02,314.82 M 1271.02,314.82 L 1310.91,319.65 M 1310.91,319.65 L 1352.70,325.68 M 1352.70,325.68 L 1395.80,334.23 M 1395.80,334.23 L 1438.82,346.58 M 1438.82,346.58 L 1479.68,363.32 M 1479.68,363.32 L 1516.42,384.07 M 1516.42,384.07 L 1547.91,407.99 M 1547.91,407.99 L 1573.78,434.40 M 1573.78,434.40 L 1594.03,463.12 M 1594.03,463.12 L 1608.64,494.33 M 1608.64,494.33 L 1617.38,528.48 M 1617.38,528.48 L 1619.71,566.07 M 1583.48,496.98 L 1138.51,244.98 M 1076.03,240.88 L 1521.00,60.88 M 1572.70,60.00 L 1576.63,100.62 M 1576.63,100.62 L 1584.18,138.73 M 1584.18,138.73 L 1595.38,174.45 M 1595.38,174.45 L 1610.14,207.93 M 1610.14,207.93 L 1628.31,239.29 M 1628.31,239.29 L 1649.55,268.52 M 1649.55,268.52 L 1673.52,295.47 M 1673.52,295.47 L 1699.86,319.82 M 1699.86,319.82 L 1728.36,341.20 M 1728.36,341.20 L 1759.00,359.25 M 1759.00,359.25 L 1791.84,373.73 M 1791.84,373.73 L 1827.04,384.55 M 1827.04,384.55 L 1864.73,391.69 M 1864.73,391.69 L 1905.05,395.22" fill="none" stroke="#aa5522"        stroke-width="0.75" stroke-dasharray="2 2" opacity="0.5"/>
  <path d="M 1836.00,415.63 L 1836.00,1807.63 L 1476.00,1807.63 L 1452.00,1168.32 L 1428.00,1807.63 L 996.00,1807.63 L 948.00,1216.32 L 1404.00,1072.32 L 948.00,1120.32 L 948.00,943.63 L 1546.38,577.72 L 1541.65,595.44 L 1534.00,612.79 L 1523.63,629.76 L 1510.74,646.36 L 1495.50,662.57 L 1478.12,678.38 L 1458.79,693.80 L 1437.71,708.81 L 1415.06,723.42 L 1391.04,737.61 L 1365.85,751.38 L 1339.68,764.72 L 1312.71,777.63 L 1285.15,790.11 L 1257.19,802.14 L 1229.02,813.72 L 1200.84,824.85 L 1172.83,835.52 L 1145.20,845.72 L 1118.13,855.45 L 1091.81,864.70 L 1066.45,873.48 L 1042.24,881.76 L 1019.36,889.55 L 998.02,896.84 L 978.40,903.63 L 960.70,909.90 L 945.12,915.66 L 931.84,920.90 L 921.06,925.61 L 912.97,929.79 L 907.77,933.43 L 905.65,936.52 L 906.80,939.07 L 911.41,941.05 L 919.69,942.48 L 931.82,943.34 L 948.00,943.63 L 1114.72,313.93 L 1126.96,319.91 L 1139.69,325.60 L 1152.87,331.03 L 1166.45,336.22 L 1180.40,341.21 L 1194.66,346.01 L 1209.19,350.65 L 1223.94,355.16 L 1238.88,359.57 L 1253.95,363.89 L 1269.11,368.17 L 1284.31,372.42 L 1299.52,376.67 L 1314.68,380.94 L 1329.75,385.27 L 1344.68,389.68 L 1359.44,394.19 L 1373.97,398.83 L 1388.23,403.63 L 1402.17,408.61 L 1415.76,413.81 L 1428.94,419.24 L 1441.67,424.93 L 1453.90,430.91 L 1465.60,437.20 L 1476.71,443.84 L 1487.19,450.84 L 1496.99,458.24 L 1506.08,466.06 L 1514.39,474.32 L 1521.90,483.06 L 1528.56,492.29 L 1534.31,502.05 L 1539.12,512.36 L 1542.94,523.25 L 1545.72,534.74 L 1547.42,546.86 L 1548.00,559.63 L 1103.03,307.63 L 1548.00,127.63 Q 1548.00,415.63 1836.00,415.63 Z" fill="#fdeede" stroke="none" opacity="0.85"/>
  <g clip-path="url(#bodice-clip)">
    <line x1="948.0" y1="175.6" x2="948.0" y2="1807.6"          stroke="#aaa" stroke-width="0.75" stroke-dasharray="4 3"/>
    <line x1="60.0" y1="559.6" x2="1836.0" y2="559.6"          stroke="#aaa" stroke-width="0.75" stroke-dasharray="4 3"/>
    <line x1="60.0" y1="943.6" x2="1836.0" y2="943.6"          stroke="#aaa" stroke-width="0.75" stroke-dasharray="4 3"/>
    <line x1="60.0" y1="1705.8" x2="852.0" y2="1705.8"          stroke="#aaa" stroke-width="0.75" stroke-dasharray="4 3"/>
  </g>
  <g>
    <line x1="948.0" y1="1120.3" x2="948.0" y2="1168.3"          stroke="#bbb" stroke-width="0.75" stroke-dasharray="4 3"/>
    <line x1="948.0" y1="1168.3" x2="948.0" y2="1216.3"          stroke="#bbb" stroke-width="0.75" stroke-dasharray="4 3"/>
    <line x1="948.0" y1="1168.3" x2="1404.0" y2="1072.3"          stroke="#bbb" stroke-width="0.75" stroke-dasharray="4 3"/>
    <line x1="1428.0" y1="1807.6" x2="1476.0" y2="1807.6"          stroke="#bbb" stroke-width="0.75" stroke-dasharray="4 3"/>
    <line x1="1452.0" y1="1168.3" x2="1452.0" y2="1807.6"          stroke="#bbb" stroke-width="0.75" stroke-dasharray="4 3"/>
  </g>
  <path d="M 1836.00,415.63 L 1836.00,1807.63 M 1836.00,1807.63 L 1476.00,1807.63 M 1428.00,1807.63 L 996.00,1807.63 M 996.00,1807.63 L 948.00,1216.32 M 948.00,1120.32 L 948.00,943.63 M 1548.00,559.63 L 1546.38,577.72 L 1541.65,595.44 L 1534.00,612.79 L 1523.63,629.76 L 1510.74,646.36 L 1495.50,662.57 L 1478.12,678.38 L 1458.79,693.80 L 1437.71,708.81 L 1415.06,723.42 L 1391.04,737.61 L 1365.85,751.38 L 1339.68,764.72 L 1312.71,777.63 L 1285.15,790.11 L 1257.19,802.14 L 1229.02,813.72 L 1200.84,824.85 L 1172.83,835.52 L 1145.20,845.72 L 1118.13,855.45 L 1091.81,864.70 L 1066.45,873.48 L 1042.24,881.76 L 1019.36,889.55 L 998.02,896.84 L 978.40,903.63 L 960.70,909.90 L 945.12,915.66 L 931.84,920.90 L 921.06,925.61 L 912.97,929.79 L 907.77,933.43 L 905.65,936.52 L 906.80,939.07 L 911.41,941.05 L 919.69,942.48 L 931.82,943.34 L 948.00,943.63 M 1103.03,307.63 L 1114.72,313.93 L 1126.96,319.91 L 1139.69,325.60 L 1152.87,331.03 L 1166.45,336.22 L 1180.40,341.21 L 1194.66,346.01 L 1209.19,350.65 L 1223.94,355.16 L 1238.88,359.57 L 1253.95,363.89 L 1269.11,368.17 L 1284.31,372.42 L 1299.52,376.67 L 1314.68,380.94 L 1329.75,385.27 L 1344.68,389.68 L 1359.44,394.19 L 1373.97,398.83 L 1388.23,403.63 L 1402.17,408.61 L 1415.76,413.81 L 1428.94,419.24 L 1441.67,424.93 L 1453.90,430.91 L 1465.60,437.20 L 1476.71,443.84 L 1487.19,450.84 L 1496.99,458.24 L 1506.08,466.06 L 1514.39,474.32 L 1521.90,483.06 L 1528.56,492.29 L 1534.31,502.05 L 1539.12,512.36 L 1542.94,523.25 L 1545.72,534.74 L 1547.42,546.86 L 1548.00,559.63 M 1548.00,559.63 L 1103.03,307.63 M 1103.03,307.63 L 1548.00,127.63 M 1548.00,127.63 Q 1548.00,415.63 1836.00,415.63" fill="none" stroke="#aa5522"        stroke-width="1.5" stroke-linejoin="round"/>
  <path d="M 1476.00,1807.63 L 1452.00,1168.32 M 1452.00,1168.32 L 1428.00,1807.63 M 948.00,1216.32 L 1404.00,1072.32 M 1404.00,1072.32 L 948.00,1120.32" fill="none" stroke="#bbb"        stroke-width="1" stroke-linejoin="round"/>
  <g clip-path="url(#bodice-clip)">
    <circle cx="60.0" cy="1807.6" r="3"            fill="white" stroke="#888" stroke-width="1"/>
    <circle cx="1836.0" cy="175.6" r="3"            fill="white" stroke="#888" stroke-width="1"/>
    <circle cx="948.0" cy="175.6" r="3"            fill="white" stroke="#888" stroke-width="1"/>
    <circle cx="948.0" cy="1807.6" r="3"            fill="white" stroke="#888" stroke-width="1"/>
    <circle cx="60.0" cy="559.6" r="3"            fill="white" stroke="#888" stroke-width="1"/>
    <circle cx="1836.0" cy="559.6" r="3"            fill="white" stroke="#888" stroke-width="1"/>
    <circle cx="60.0" cy="943.6" r="3"            fill="white" stroke="#888" stroke-width="1"/>
    <circle cx="1836.0" cy="943.6" r="3"            fill="white" stroke="#888" stroke-width="1"/>
    <circle cx="1325.5" cy="217.6" r="3"            fill="white" stroke="#888" stroke-width="1"/>
    <circle cx="948.0" cy="1168.3" r="3"            fill="white" stroke="#888" stroke-width="1"/>
    <circle cx="852.0" cy="1807.6" r="3"            fill="white" stroke="#888" stroke-width="1"/>
    <circle cx="324.0" cy="271.6" r="3"            fill="white" stroke="#888" stroke-width="1"/>
    <circle cx="1836.0" cy="1807.6" r="2.5" fill="black"/>
    <circle cx="1836.0" cy="415.6" r="2.5" fill="black"/>
    <circle cx="1548.0" cy="127.6" r="2.5" fill="black"/>
    <circle cx="1103.0" cy="307.6" r="2.5" fill="black"/>
    <circle cx="1548.0" cy="559.6" r="2.5" fill="black"/>
    <circle cx="948.0" cy="943.6" r="2.5" fill="black"/>
    <circle cx="996.0" cy="1807.6" r="2.5" fill="black"/>
    <circle cx="1404.0" cy="1072.3" r="2.5" fill="black"/>
    <circle cx="948.0" cy="1216.3" r="2.5" fill="black"/>
    <circle cx="1452.0" cy="1168.3" r="2.5" fill="black"/>
    <circle cx="948.0" cy="1120.3" r="2.5" fill="black"/>
    <circle cx="1428.0" cy="1807.6" r="2.5" fill="black"/>
    <circle cx="1476.0" cy="1807.6" r="2.5" fill="black"/>
    <circle cx="1452.0" cy="1072.3" r="2.5" fill="black"/>
  </g>
  <text x="1821.9" y="1793.5"        font-family="monospace" font-size="11"        fill="#222" font-weight="bold"        text-anchor="middle" dominant-baseline="middle">D</text>
  <text x="1821.9" y="429.8"        font-family="monospace" font-size="11"        fill="#222" font-weight="bold"        text-anchor="middle" dominant-baseline="middle">M</text>
  <text x="1536.8" y="144.2"        font-family="monospace" font-size="11"        fill="#222" font-weight="bold"        text-anchor="middle" dominant-baseline="middle">K</text>
  <text x="1123.0" y="308.9"        font-family="monospace" font-size="11"        fill="#222" font-weight="bold"        text-anchor="middle" dominant-baseline="middle">N</text>
  <text x="1536.4" y="543.3"        font-family="monospace" font-size="11"        fill="#222" font-weight="bold"        text-anchor="middle" dominant-baseline="middle">P</text>
  <text x="962.9" y="930.3"        font-family="monospace" font-size="11"        fill="#222" font-weight="bold"        text-anchor="middle" dominant-baseline="middle">O</text>
  <text x="1009.6" y="1792.9"        font-family="monospace" font-size="11"        fill="#222" font-weight="bold"        text-anchor="middle" dominant-baseline="middle">Q</text>
  <text x="1416.5" y="1056.7"        font-family="monospace" font-size="11"        fill="#222" font-weight="bold"        text-anchor="middle" dominant-baseline="middle">T</text>
  <text x="944.1" y="1196.7"        font-family="monospace" font-size="11"        fill="#222" font-weight="bold"        text-anchor="middle" dominant-baseline="middle">V</text>
  <text x="1452.0" y="1148.3"        font-family="monospace" font-size="11"        fill="#222" font-weight="bold"        text-anchor="middle" dominant-baseline="middle">W</text>
  <text x="961.4" y="1105.5"        font-family="monospace" font-size="11"        fill="#222" font-weight="bold"        text-anchor="middle" dominant-baseline="middle">UU</text>
  <text x="1414.1" y="1793.2"        font-family="monospace" font-size="11"        fill="#222" font-weight="bold"        text-anchor="middle" dominant-baseline="middle">VV</text>
  <text x="1489.9" y="1793.2"        font-family="monospace" font-size="11"        fill="#222" font-weight="bold"        text-anchor="middle" dominant-baseline="middle">WW</text>
  <text x="1449.9" y="1052.4"        font-family="monospace" font-size="11"        fill="#222" font-weight="bold"        text-anchor="middle" dominant-baseline="middle">S</text>
</svg>