<?xml version="1.0" encoding="UTF-8"?>
<svg xmlns="http://www.w3.org/2000/svg"
     width="1968" height="1868"
     viewBox="0 0 1968 1868">
  <rect width="100%" height="100%" fill="white"/>
  <defs>
    <clipPath id="bodice-clip">
      <path d="M 132.00,1702.46 L 132.00,176.31 Q 356.00,176.31 372.00,128.31 L 918.44,310.45 L 924.57,312.88 L 929.60,315.68 L 933.60,318.86 L 936.61,322.38 L 938.68,326.25 L 939.87,330.44 L 940.21,334.95 L 939.76,339.75 L 938.57,344.84 L 936.69,350.19 L 934.17,355.81 L 931.05,361.66 L 927.40,367.75 L 923.24,374.04 L 918.65,380.54 L 913.66,387.23 L 908.33,394.08 L 902.70,401.10 L 896.82,408.26 L 890.75,415.55 L 884.54,422.96 L 878.22,430.47 L 871.86,438.07 L 865.50,445.74 L 859.19,453.47 L 852.98,461.25 L 846.92,469.07 L 841.07,476.90 L 835.46,484.74 L 830.15,492.56 L 825.19,500.37 L 820.63,508.14 L 816.51,515.85 L 812.90,523.51 L 809.83,531.08 L 807.35,538.56 L 805.52,545.93 L 804.39,553.19 L 804.00,560.31 L 803.95,578.75 L 803.83,596.79 L 803.67,614.42 L 803.49,631.64 L 803.32,648.46 L 803.21,664.85 L 803.16,680.82 L 803.22,696.37 L 803.42,711.48 L 803.78,726.16 L 804.34,740.41 L 805.12,754.21 L 806.15,767.56 L 807.47,780.46 L 809.10,792.91 L 811.08,804.90 L 813.43,816.42 L 816.18,827.48 L 819.37,838.06 L 823.01,848.17 L 827.16,857.80 L 831.82,866.94 L 837.04,875.60 L 842.84,883.76 L 849.25,891.43 L 856.30,898.60 L 864.03,905.26 L 872.46,911.41 L 881.61,917.05 L 891.53,922.17 L 902.25,926.77 L 913.78,930.85 L 926.16,934.39 L 939.43,937.41 L 953.60,939.88 L 968.71,941.81 L 984.80,943.19 L 1001.88,944.03 L 1020.00,944.31 L 876.00,1702.46 L 468.00,1702.46 L 432.00,944.31 L 396.00,1702.46 L 132.00,1702.46 Z"/>
    </clipPath>
  </defs>
  <path d="M 60.00,1702.46 L 60.00,176.31 M 69.95,139.79 L 101.89,137.89 M 101.89,137.89 L 131.79,135.47 M 131.79,135.47 L 159.66,132.54 M 159.66,132.54 L 185.48,129.11 M 185.48,129.11 L 209.23,125.22 M 209.23,125.22 L 230.92,120.88 M 230.92,120.88 L 250.50,116.12 M 250.50,116.12 L 267.96,110.96 M 267.96,110.96 L 283.27,105.41 M 283.27,105.41 L 296.40,99.51 M 296.40,99.51 L 307.32,93.25 M 307.32,93.25 L 316.01,86.65 M 316.01,86.65 L 322.44,79.70 M 322.44,79.70 L 326.60,72.42 M 394.77,60.00 L 941.21,242.15 M 976.97,268.51 L 989.79,275.97 M 989.79,275.97 L 998.01,284.74 M 998.01,284.74 L 1002.14,294.80 M 1002.14,294.80 L 1002.66,306.10 M 1002.66,306.10 L 1000.05,318.59 M 1000.05,318.59 L 994.77,332.21 M 994.77,332.21 L 987.28,346.92 M 987.28,346.92 L 978.03,362.68 M 978.03,362.68 L 967.46,379.46 M 967.46,379.46 L 956.00,397.27 M 956.00,397.27 L 944.06,416.11 M 944.06,416.11 L 932.01,436.04 M 932.01,436.04 L 920.19,457.07 M 920.19,457.07 L 908.82,479.19 M 908.82,479.19 L 898.12,502.25 M 898.12,502.25 L 888.25,525.85 M 888.25,525.85 L 879.56,549.33 M 879.56,549.33 L 872.61,571.88 M 872.61,571.88 L 868.27,592.76 M 868.27,592.76 L 860.64,641.95 M 860.64,641.95 L 853.34,685.37 M 853.34,685.37 L 847.26,724.34 M 847.26,724.34 L 842.70,759.82 M 842.70,759.82 L 839.77,792.39 M 839.77,792.39 L 838.57,822.38 M 838.57,822.38 L 839.23,849.99 M 839.23,849.99 L 841.89,875.31 M 841.89,875.31 L 846.74,898.40 M 846.74,898.40 L 853.99,919.26 M 853.99,919.26 L 863.84,937.89 M 863.84,937.89 L 876.53,954.25 M 876.53,954.25 L 892.29,968.30 M 892.29,968.30 L 911.35,980.01 M 911.35,980.01 L 933.96,989.30 M 933.96,989.30 L 960.34,996.11 M 960.34,996.11 L 990.71,1000.39 M 990.71,1000.39 L 1025.29,1002.07 M 1025.29,1002.07 L 1064.26,1001.09 M 1090.74,957.74 L 946.74,1715.89 M 876.00,1774.46 L 468.00,1774.46 M 396.00,1774.46 L 132.00,1774.46" fill="none" stroke="#2255aa"        stroke-width="0.75" stroke-dasharray="2 2" opacity="0.5"/>
  <path d="M 132.00,1702.46 L 132.00,176.31 Q 356.00,176.31 372.00,128.31 L 918.44,310.45 L 924.57,312.88 L 929.60,315.68 L 933.60,318.86 L 936.61,322.38 L 938.68,326.25 L 939.87,330.44 L 940.21,334.95 L 939.76,339.75 L 938.57,344.84 L 936.69,350.19 L 934.17,355.81 L 931.05,361.66 L 927.40,367.75 L 923.24,374.04 L 918.65,380.54 L 913.66,387.23 L 908.33,394.08 L 902.70,401.10 L 896.82,408.26 L 890.75,415.55 L 884.54,422.96 L 878.22,430.47 L 871.86,438.07 L 865.50,445.74 L 859.19,453.47 L 852.98,461.25 L 846.92,469.07 L 841.07,476.90 L 835.46,484.74 L 830.15,492.56 L 825.19,500.37 L 820.63,508.14 L 816.51,515.85 L 812.90,523.51 L 809.83,531.08 L 807.35,538.56 L 805.52,545.93 L 804.39,553.19 L 804.00,560.31 L 803.95,578.75 L 803.83,596.79 L 803.67,614.42 L 803.49,631.64 L 803.32,648.46 L 803.21,664.85 L 803.16,680.82 L 803.22,696.37 L 803.42,711.48 L 803.78,726.16 L 804.34,740.41 L 805.12,754.21 L 806.15,767.56 L 807.47,780.46 L 809.10,792.91 L 811.08,804.90 L 813.43,816.42 L 816.18,827.48 L 819.37,838.06 L 823.01,848.17 L 827.16,857.80 L 831.82,866.94 L 837.04,875.60 L 842.84,883.76 L 849.25,891.43 L 856.30,898.60 L 864.03,905.26 L 872.46,911.41 L 881.61,917.05 L 891.53,922.17 L 902.25,926.77 L 913.78,930.85 L 926.16,934.39 L 939.43,937.41 L 953.60,939.88 L 968.71,941.81 L 984.80,943.19 L 1001.88,944.03 L 1020.00,944.31 L 876.00,1702.46 L 468.00,1702.46 L 432.00,944.31 L 396.00,1702.46 L 132.00,1702.46 Z" fill="#dce8f5" stroke="none" opacity="0.85"/>
  <g clip-path="url(#bodice-clip)">
    <line x1="1020.0" y1="176.3" x2="1020.0" y2="1808.3"          stroke="#aaa" stroke-width="0.75" stroke-dasharray="4 3"/>
    <line x1="132.0" y1="560.3" x2="1908.0" y2="560.3"          stroke="#aaa" stroke-width="0.75" stroke-dasharray="4 3"/>
    <line x1="132.0" y1="944.3" x2="1908.0" y2="944.3"          stroke="#aaa" stroke-width="0.75" stroke-dasharray="4 3"/>
    <line x1="132.0" y1="1702.5" x2="876.0" y2="1702.5"          stroke="#aaa" stroke-width="0.75" stroke-dasharray="4 3"/>
  </g>
  <g>
    <line x1="396.0" y1="1702.5" x2="468.0" y2="1702.5"          stroke="#bbb" stroke-width="0.75" stroke-dasharray="4 3"/>
    <line x1="432.0" y1="944.3" x2="432.0" y2="1702.5"          stroke="#bbb" stroke-width="0.75" stroke-dasharray="4 3"/>
  </g>
  <path d="M 132.00,1702.46 L 132.00,176.31 M 132.00,176.31 Q 356.00,176.31 372.00,128.31 M 372.00,128.31 L 918.44,310.45 M 918.44,310.45 L 924.57,312.88 L 929.60,315.68 L 933.60,318.86 L 936.61,322.38 L 938.68,326.25 L 939.87,330.44 L 940.21,334.95 L 939.76,339.75 L 938.57,344.84 L 936.69,350.19 L 934.17,355.81 L 931.05,361.66 L 927.40,367.75 L 923.24,374.04 L 918.65,380.54 L 913.66,387.23 L 908.33,394.08 L 902.70,401.10 L 896.82,408.26 L 890.75,415.55 L 884.54,422.96 L 878.22,430.47 L 871.86,438.07 L 865.50,445.74 L 859.19,453.47 L 852.98,461.25 L 846.92,469.07 L 841.07,476.90 L 835.46,484.74 L 830.15,492.56 L 825.19,500.37 L 820.63,508.14 L 816.51,515.85 L 812.90,523.51 L 809.83,531.08 L 807.35,538.56 L 805.52,545.93 L 804.39,553.19 L 804.00,560.31 M 804.00,560.31 L 803.95,578.75 L 803.83,596.79 L 803.67,614.42 L 803.49,631.64 L 803.32,648.46 L 803.21,664.85 L 803.16,680.82 L 803.22,696.37 L 803.42,711.48 L 803.78,726.16 L 804.34,740.41 L 805.12,754.21 L 806.15,767.56 L 807.47,780.46 L 809.10,792.91 L 811.08,804.90 L 813.43,816.42 L 816.18,827.48 L 819.37,838.06 L 823.01,848.17 L 827.16,857.80 L 831.82,866.94 L 837.04,875.60 L 842.84,883.76 L 849.25,891.43 L 856.30,898.60 L 864.03,905.26 L 872.46,911.41 L 881.61,917.05 L 891.53,922.17 L 902.25,926.77 L 913.78,930.85 L 926.16,934.39 L 939.43,937.41 L 953.60,939.88 L 968.71,941.81 L 984.80,943.19 L 1001.88,944.03 L 1020.00,944.31 M 1020.00,944.31 L 876.00,1702.46 M 876.00,1702.46 L 468.00,1702.46 M 396.00,1702.46 L 132.00,1702.46" fill="none" stroke="#2255aa"        stroke-width="1.5" stroke-linejoin="round"/>
  <path d="M 468.00,1702.46 L 432.00,944.31 M 432.00,944.31 L 396.00,1702.46" fill="none" stroke="#bbb"        stroke-width="1" stroke-linejoin="round"/>
  <g clip-path="url(#bodice-clip)">
    <circle cx="132.0" cy="1808.3" r="3"            fill="white" stroke="#888" stroke-width="1"/>
    <circle cx="1908.0" cy="176.3" r="3"            fill="white" stroke="#888" stroke-width="1"/>
    <circle cx="1020.0" cy="176.3" r="3"            fill="white" stroke="#888" stroke-width="1"/>
    <circle cx="1020.0" cy="1808.3" r="3"            fill="white" stroke="#888" stroke-width="1"/>
    <circle cx="132.0" cy="560.3" r="3"            fill="white" stroke="#888" stroke-width="1"/>
    <circle cx="1908.0" cy="560.3" r="3"            fill="white" stroke="#888" stroke-width="1"/>
    <circle cx="132.0" cy="944.3" r="3"            fill="white" stroke="#888" stroke-width="1"/>
    <circle cx="1908.0" cy="944.3" r="3"            fill="white" stroke="#888" stroke-width="1"/>
    <circle cx="1371.8" cy="218.3" r="3"            fill="white" stroke="#888" stroke-width="1"/>
    <circle cx="1020.0" cy="1170.5" r="3"            fill="white" stroke="#888" stroke-width="1"/>
    <circle cx="876.0" cy="1808.3" r="3"            fill="white" stroke="#888" stroke-width="1"/>
    <circle cx="804.0" cy="272.3" r="3"            fill="white" stroke="#888" stroke-width="1"/>
    <circle cx="132.0" cy="176.3" r="2.5" fill="black"/>
    <circle cx="132.0" cy="1702.5" r="2.5" fill="black"/>
    <circle cx="372.0" cy="128.3" r="2.5" fill="black"/>
    <circle cx="918.4" cy="310.5" r="2.5" fill="black"/>
    <circle cx="804.0" cy="560.3" r="2.5" fill="black"/>
    <circle cx="1020.0" cy="944.3" r="2.5" fill="black"/>
    <circle cx="876.0" cy="1702.5" r="2.5" fill="black"/>
    <circle cx="396.0" cy="1702.5" r="2.5" fill="black"/>
    <circle cx="468.0" cy="1702.5" r="2.5" fill="black"/>
    <circle cx="432.0" cy="944.3" r="2.5" fill="black"/>
  </g>
  <text x="146.1" y="190.4"        font-family="monospace" font-size="11"        fill="#222" font-weight="bold"        text-anchor="middle" dominant-baseline="middle">A</text>
  <text x="146.1" y="1688.3"        font-family="monospace" font-size="11"        fill="#222" font-weight="bold"        text-anchor="middle" dominant-baseline="middle">GG</text>
  <text x="380.9" y="146.2"        font-family="monospace" font-size="11"        fill="#222" font-weight="bold"        text-anchor="middle" dominant-baseline="middle">AA</text>
  <text x="909.8" y="328.5"        font-family="monospace" font-size="11"        fill="#222" font-weight="bold"        text-anchor="middle" dominant-baseline="middle">DD</text>
  <text x="784.1" y="558.3"        font-family="monospace" font-size="11"        fill="#222" font-weight="bold"        text-anchor="middle" dominant-baseline="middle">BB</text>
  <text x="1000.2" y="941.8"        font-family="monospace" font-size="11"        fill="#222" font-weight="bold"        text-anchor="middle" dominant-baseline="middle">O</text>
  <text x="863.2" y="1687.1"        font-family="monospace" font-size="11"        fill="#222" font-weight="bold"        text-anchor="middle" dominant-baseline="middle">FF</text>
  <text x="382.2" y="1688.0"        font-family="monospace" font-size="11"        fill="#222" font-weight="bold"        text-anchor="middle" dominant-baseline="middle">XX</text>
  <text x="481.8" y="1688.0"        font-family="monospace" font-size="11"        fill="#222" font-weight="bold"        text-anchor="middle" dominant-baseline="middle">YY</text>
  <text x="432.0" y="924.3"        font-family="monospace" font-size="11"        fill="#222" font-weight="bold"        text-anchor="middle" dominant-baseline="middle">ZZ</text>
</svg>