<?xml version="1.0" encoding="UTF-8"?>
<svg xmlns="http://www.w3.org/2000/svg"
     width="1968" height="1940"
     viewBox="0 0 1968 1940">
  <rect width="100%" height="100%" fill="white"/>
  <defs>
    <clipPath id="bodice-clip">
      <path d="M 1836.00,415.69 L 1836.00,1807.69 L 1452.00,1807.69 L 1416.00,1169.84 L 1380.00,1807.69 L 1044.00,1807.69 L 948.00,1217.84 L 1368.00,1073.84 L 948.00,1121.84 L 948.00,943.69 L 964.95,943.38 L 980.76,942.47 L 995.45,940.96 L 1009.08,938.85 L 1021.67,936.17 L 1033.27,932.91 L 1043.91,929.09 L 1053.63,924.72 L 1062.47,919.79 L 1070.47,914.33 L 1077.66,908.33 L 1084.07,901.82 L 1089.76,894.79 L 1094.75,887.26 L 1099.09,879.23 L 1102.81,870.71 L 1105.94,861.71 L 1108.53,852.24 L 1110.62,842.31 L 1112.24,831.92 L 1113.43,821.09 L 1114.22,809.83 L 1114.66,798.13 L 1114.78,786.02 L 1114.62,773.49 L 1114.21,760.56 L 1113.61,747.24 L 1112.83,733.53 L 1111.92,719.44 L 1110.93,704.98 L 1109.87,690.17 L 1108.80,675.00 L 1107.76,659.49 L 1106.76,643.64 L 1105.87,627.47 L 1105.11,610.98 L 1104.52,594.18 L 1104.14,577.08 L 1104.00,559.69 L 1103.74,552.99 L 1103.00,546.11 L 1101.80,539.05 L 1100.18,531.85 L 1098.17,524.50 L 1095.82,517.04 L 1093.15,509.46 L 1090.20,501.80 L 1087.01,494.07 L 1083.61,486.28 L 1080.03,478.45 L 1076.32,470.59 L 1072.50,462.72 L 1068.61,454.86 L 1064.69,447.03 L 1060.77,439.23 L 1056.89,431.49 L 1053.08,423.82 L 1049.37,416.24 L 1045.81,408.76 L 1042.42,401.40 L 1039.24,394.17 L 1036.32,387.10 L 1033.67,380.20 L 1031.34,373.47 L 1029.36,366.95 L 1027.77,360.65 L 1026.60,354.58 L 1025.89,348.75 L 1025.67,343.19 L 1025.98,337.91 L 1026.85,332.93 L 1028.31,328.26 L 1030.41,323.91 L 1033.18,319.91 L 1036.65,316.28 L 1040.86,313.02 L 1045.84,310.15 L 1051.63,307.69 L 1548.00,127.69 Q 1548.00,415.69 1836.00,415.69 Z"/>
    </clipPath>
  </defs>
  <path d="M 1908.00,415.69 L 1908.00,1807.69 M 1836.00,1879.69 L 1452.00,1879.69 M 1380.00,1879.69 L 1044.00,1879.69 M 972.94,1819.25 L 876.94,1229.41 M 876.00,1121.84 L 876.00,943.69 M 903.06,999.94 L 939.60,1000.92 M 939.60,1000.92 L 971.20,998.96 M 971.20,998.96 L 998.10,994.16 M 998.10,994.16 L 1020.56,986.64 M 1020.56,986.64 L 1038.87,976.50 M 1038.87,976.50 L 1053.32,963.83 M 1053.32,963.83 L 1064.20,948.74 M 1064.20,948.74 L 1071.82,931.29 M 1071.82,931.29 L 1076.48,911.53 M 1076.48,911.53 L 1078.44,889.49 M 1078.44,889.49 L 1078.01,865.17 M 1078.01,865.17 L 1075.44,838.50 M 1075.44,838.50 L 1071.01,809.38 M 1071.01,809.38 L 1065.01,777.59 M 1065.01,777.59 L 1057.80,742.80 M 1057.80,742.80 L 1049.89,704.58 M 1049.89,704.58 L 1042.09,662.43 M 1042.09,662.43 L 1035.66,616.03 M 1035.66,616.03 L 1032.26,565.75 M 1032.26,565.75 L 1030.95,545.62 M 1030.95,545.62 L 1028.27,524.62 M 1028.27,524.62 L 1024.52,503.29 M 1024.52,503.29 L 1019.87,482.06 M 1019.87,482.06 L 1014.46,461.19 M 1014.46,461.19 L 1008.47,440.87 M 1008.47,440.87 L 1002.10,421.16 M 1002.10,421.16 L 995.58,402.12 M 995.58,402.12 L 989.20,383.78 M 989.20,383.78 L 983.26,366.21 M 983.26,366.21 L 978.07,349.44 M 978.07,349.44 L 973.95,333.55 M 973.95,333.55 L 971.24,318.61 M 971.24,318.61 L 970.26,304.72 M 970.26,304.72 L 971.36,291.96 M 971.36,291.96 L 974.87,280.42 M 974.87,280.42 L 981.15,270.21 M 981.15,270.21 L 990.57,261.42 M 990.57,261.42 L 1003.51,254.13 M 1027.08,240.00 L 1523.45,60.00 M 1588.27,68.00 L 1592.64,109.74 M 1592.64,109.74 L 1600.27,149.04 M 1600.27,149.04 L 1611.06,185.92 M 1611.06,185.92 L 1624.85,220.38 M 1624.85,220.38 L 1641.46,252.32 M 1641.46,252.32 L 1660.73,281.59 M 1660.73,281.59 L 1682.52,307.98 M 1682.52,307.98 L 1706.77,331.27 M 1706.77,331.27 L 1733.49,351.28 M 1733.49,351.28 L 1762.72,367.88 M 1762.72,367.88 L 1794.53,381.02 M 1794.53,381.02 L 1829.00,390.67 M 1829.00,390.67 L 1866.20,396.86 M 1866.20,396.86 L 1906.19,399.65" fill="none" stroke="#aa5522"        stroke-width="0.75" stroke-dasharray="2 2" opacity="0.5"/>
  <path d="M 1836.00,415.69 L 1836.00,1807.69 L 1452.00,1807.69 L 1416.00,1169.84 L 1380.00,1807.69 L 1044.00,1807.69 L 948.00,1217.84 L 1368.00,1073.84 L 948.00,1121.84 L 948.00,943.69 L 964.95,943.38 L 980.76,942.47 L 995.45,940.96 L 1009.08,938.85 L 1021.67,936.17 L 1033.27,932.91 L 1043.91,929.09 L 1053.63,924.72 L 1062.47,919.79 L 1070.47,914.33 L 1077.66,908.33 L 1084.07,901.82 L 1089.76,894.79 L 1094.75,887.26 L 1099.09,879.23 L 1102.81,870.71 L 1105.94,861.71 L 1108.53,852.24 L 1110.62,842.31 L 1112.24,831.92 L 1113.43,821.09 L 1114.22,809.83 L 1114.66,798.13 L 1114.78,786.02 L 1114.62,773.49 L 1114.21,760.56 L 1113.61,747.24 L 1112.83,733.53 L 1111.92,719.44 L 1110.93,704.98 L 1109.87,690.17 L 1108.80,675.00 L 1107.76,659.49 L 1106.76,643.64 L 1105.87,627.47 L 1105.11,610.98 L 1104.52,594.18 L 1104.14,577.08 L 1104.00,559.69 L 1103.74,552.99 L 1103.00,546.11 L 1101.80,539.05 L 1100.18,531.85 L 1098.17,524.50 L 1095.82,517.04 L 1093.15,509.46 L 1090.20,501.80 L 1087.01,494.07 L 1083.61,486.28 L 1080.03,478.45 L 1076.32,470.59 L 1072.50,462.72 L 1068.61,454.86 L 1064.69,447.03 L 1060.77,439.23 L 1056.89,431.49 L 1053.08,423.82 L 1049.37,416.24 L 1045.81,408.76 L 1042.42,401.40 L 1039.24,394.17 L 1036.32,387.10 L 1033.67,380.20 L 1031.34,373.47 L 1029.36,366.95 L 1027.77,360.65 L 1026.60,354.58 L 1025.89,348.75 L 1025.67,343.19 L 1025.98,337.91 L 1026.85,332.93 L 1028.31,328.26 L 1030.41,323.91 L 1033.18,319.91 L 1036.65,316.28 L 1040.86,313.02 L 1045.84,310.15 L 1051.63,307.69 L 1548.00,127.69 Q 1548.00,415.69 1836.00,415.69 Z" fill="#fdeede" stroke="none" opacity="0.85"/>
  <g clip-path="url(#bodice-clip)">
    <line x1="948.0" y1="175.7" x2="948.0" y2="1807.7"          stroke="#aaa" stroke-width="0.75" stroke-dasharray="4 3"/>
    <line x1="60.0" y1="559.7" x2="1836.0" y2="559.7"          stroke="#aaa" stroke-width="0.75" stroke-dasharray="4 3"/>
    <line x1="60.0" y1="943.7" x2="1836.0" y2="943.7"          stroke="#aaa" stroke-width="0.75" stroke-dasharray="4 3"/>
    <line x1="60.0" y1="1701.8" x2="804.0" y2="1701.8"          stroke="#aaa" stroke-width="0.75" stroke-dasharray="4 3"/>
  </g>
  <g>
    <line x1="948.0" y1="1121.8" x2="948.0" y2="1169.8"          stroke="#bbb" stroke-width="0.75" stroke-dasharray="4 3"/>
    <line x1="948.0" y1="1169.8" x2="948.0" y2="1217.8"          stroke="#bbb" stroke-width="0.75" stroke-dasharray="4 3"/>
    <line x1="948.0" y1="1169.8" x2="1368.0" y2="1073.8"          stroke="#bbb" stroke-width="0.75" stroke-dasharray="4 3"/>
    <line x1="1380.0" y1="1807.7" x2="1452.0" y2="1807.7"          stroke="#bbb" stroke-width="0.75" stroke-dasharray="4 3"/>
    <line x1="1416.0" y1="1169.8" x2="1416.0" y2="1807.7"          stroke="#bbb" stroke-width="0.75" stroke-dasharray="4 3"/>
  </g>
  <path d="M 1836.00,415.69 L 1836.00,1807.69 M 1836.00,1807.69 L 1452.00,1807.69 M 1380.00,1807.69 L 1044.00,1807.69 M 1044.00,1807.69 L 948.00,1217.84 M 948.00,1121.84 L 948.00,943.69 M 948.00,943.69 L 964.95,943.38 L 980.76,942.47 L 995.45,940.96 L 1009.08,938.85 L 1021.67,936.17 L 1033.27,932.91 L 1043.91,929.09 L 1053.63,924.72 L 1062.47,919.79 L 1070.47,914.33 L 1077.66,908.33 L 1084.07,901.82 L 1089.76,894.79 L 1094.75,887.26 L 1099.09,879.23 L 1102.81,870.71 L 1105.94,861.71 L 1108.53,852.24 L 1110.62,842.31 L 1112.24,831.92 L 1113.43,821.09 L 1114.22,809.83 L 1114.66,798.13 L 1114.78,786.02 L 1114.62,773.49 L 1114.21,760.56 L 1113.61,747.24 L 1112.83,733.53 L 1111.92,719.44 L 1110.93,704.98 L 1109.87,690.17 L 1108.80,675.00 L 1107.76,659.49 L 1106.76,643.64 L 1105.87,627.47 L 1105.11,610.98 L 1104.52,594.18 L 1104.14,577.08 L 1104.00,559.69 M 1104.00,559.69 L 1103.74,552.99 L 1103.00,546.11 L 1101.80,539.05 L 1100.18,531.85 L 1098.17,524.50 L 1095.82,517.04 L 1093.15,509.46 L 1090.20,501.80 L 1087.01,494.07 L 1083.61,486.28 L 1080.03,478.45 L 1076.32,470.59 L 1072.50,462.72 L 1068.61,454.86 L 1064.69,447.03 L 1060.77,439.23 L 1056.89,431.49 L 1053.08,423.82 L 1049.37,416.24 L 1045.81,408.76 L 1042.42,401.40 L 1039.24,394.17 L 1036.32,387.10 L 1033.67,380.20 L 1031.34,373.47 L 1029.36,366.95 L 1027.77,360.65 L 1026.60,354.58 L 1025.89,348.75 L 1025.67,343.19 L 1025.98,337.91 L 1026.85,332.93 L 1028.31,328.26 L 1030.41,323.91 L 1033.18,319.91 L 1036.65,316.28 L 1040.86,313.02 L 1045.84,310.15 L 1051.63,307.69 M 1051.63,307.69 L 1548.00,127.69 M 1548.00,127.69 Q 1548.00,415.69 1836.00,415.69" fill="none" stroke="#aa5522"        stroke-width="1.5" stroke-linejoin="round"/>
  <path d="M 1452.00,1807.69 L 1416.00,1169.84 M 1416.00,1169.84 L 1380.00,1807.69 M 948.00,1217.84 L 1368.00,1073.84 M 1368.00,1073.84 L 948.00,1121.84" fill="none" stroke="#bbb"        stroke-width="1" stroke-linejoin="round"/>
  <g clip-path="url(#bodice-clip)">
    <circle cx="60.0" cy="1807.7" r="3"            fill="white" stroke="#888" stroke-width="1"/>
    <circle cx="1836.0" cy="175.7" r="3"            fill="white" stroke="#888" stroke-width="1"/>
    <circle cx="948.0" cy="175.7" r="3"            fill="white" stroke="#888" stroke-width="1"/>
    <circle cx="948.0" cy="1807.7" r="3"            fill="white" stroke="#888" stroke-width="1"/>
    <circle cx="60.0" cy="559.7" r="3"            fill="white" stroke="#888" stroke-width="1"/>
    <circle cx="1836.0" cy="559.7" r="3"            fill="white" stroke="#888" stroke-width="1"/>
    <circle cx="60.0" cy="943.7" r="3"            fill="white" stroke="#888" stroke-width="1"/>
    <circle cx="1836.0" cy="943.7" r="3"            fill="white" stroke="#888" stroke-width="1"/>
    <circle cx="1299.8" cy="217.7" r="3"            fill="white" stroke="#888" stroke-width="1"/>
    <circle cx="948.0" cy="1169.8" r="3"            fill="white" stroke="#888" stroke-width="1"/>
    <circle cx="804.0" cy="1807.7" r="3"            fill="white" stroke="#888" stroke-width="1"/>
    <circle cx="732.0" cy="271.7" r="3"            fill="white" stroke="#888" stroke-width="1"/>
    <circle cx="1836.0" cy="1807.7" r="2.5" fill="black"/>
    <circle cx="1836.0" cy="415.7" r="2.5" fill="black"/>
    <circle cx="1548.0" cy="127.7" r="2.5" fill="black"/>
    <circle cx="1051.6" cy="307.7" r="2.5" fill="black"/>
    <circle cx="1104.0" cy="559.7" r="2.5" fill="black"/>
    <circle cx="948.0" cy="943.7" r="2.5" fill="black"/>
    <circle cx="1044.0" cy="1807.7" r="2.5" fill="black"/>
    <circle cx="1368.0" cy="1073.8" r="2.5" fill="black"/>
    <circle cx="948.0" cy="1217.8" r="2.5" fill="black"/>
    <circle cx="1416.0" cy="1169.8" r="2.5" fill="black"/>
    <circle cx="948.0" cy="1121.8" r="2.5" fill="black"/>
    <circle cx="1380.0" cy="1807.7" r="2.5" fill="black"/>
    <circle cx="1452.0" cy="1807.7" r="2.5" fill="black"/>
    <circle cx="1416.0" cy="1073.8" r="2.5" fill="black"/>
  </g>
  <text x="1821.9" y="1793.5"        font-family="monospace" font-size="11"        fill="#222" font-weight="bold"        text-anchor="middle" dominant-baseline="middle">D</text>
  <text x="1821.9" y="429.8"        font-family="monospace" font-size="11"        fill="#222" font-weight="bold"        text-anchor="middle" dominant-baseline="middle">M</text>
  <text x="1536.5" y="144.1"        font-family="monospace" font-size="11"        fill="#222" font-weight="bold"        text-anchor="middle" dominant-baseline="middle">K</text>
  <text x="1060.6" y="325.6"        font-family="monospace" font-size="11"        fill="#222" font-weight="bold"        text-anchor="middle" dominant-baseline="middle">N</text>
  <text x="1123.9" y="558.1"        font-family="monospace" font-size="11"        fill="#222" font-weight="bold"        text-anchor="middle" dominant-baseline="middle">P</text>
  <text x="946.5" y="923.7"        font-family="monospace" font-size="11"        fill="#222" font-weight="bold"        text-anchor="middle" dominant-baseline="middle">O</text>
  <text x="1057.0" y="1792.5"        font-family="monospace" font-size="11"        fill="#222" font-weight="bold"        text-anchor="middle" dominant-baseline="middle">Q</text>
  <text x="1378.9" y="1057.1"        font-family="monospace" font-size="11"        fill="#222" font-weight="bold"        text-anchor="middle" dominant-baseline="middle">T</text>
  <text x="942.2" y="1198.7"        font-family="monospace" font-size="11"        fill="#222" font-weight="bold"        text-anchor="middle" dominant-baseline="middle">V</text>
  <text x="1416.0" y="1149.8"        font-family="monospace" font-size="11"        fill="#222" font-weight="bold"        text-anchor="middle" dominant-baseline="middle">W</text>
  <text x="961.3" y="1106.9"        font-family="monospace" font-size="11"        fill="#222" font-weight="bold"        text-anchor="middle" dominant-baseline="middle">UU</text>
  <text x="1366.3" y="1793.2"        font-family="monospace" font-size="11"        fill="#222" font-weight="bold"        text-anchor="middle" dominant-baseline="middle">VV</text>
  <text x="1465.7" y="1793.2"        font-family="monospace" font-size="11"        fill="#222" font-weight="bold"        text-anchor="middle" dominant-baseline="middle">WW</text>
  <text x="1410.5" y="1054.6"        font-family="monospace" font-size="11"        fill="#222" font-weight="bold"        text-anchor="middle" dominant-baseline="middle">S</text>
</svg>