<?xml version="1.0" encoding="UTF-8"?>
<svg xmlns="http://www.w3.org/2000/svg"
     width="1968" height="1868"
     viewBox="0 0 1968 1868">
  <rect width="100%" height="100%" fill="white"/>
  <defs>
    <clipPath id="bodice-clip">
      <path d="M 132.00,1702.46 L 132.00,176.31 Q 356.00,176.31 372.00,128.31 L 918.44,310.45 L 915.43,316.84 L 912.29,323.20 L 909.01,329.54 L 905.62,335.84 L 902.13,342.13 L 898.54,348.39 L 894.88,354.64 L 891.14,360.87 L 887.34,367.09 L 883.50,373.30 L 879.63,379.50 L 875.73,385.69 L 871.82,391.89 L 867.91,398.08 L 864.01,404.28 L 860.13,410.48 L 856.29,416.69 L 852.50,422.91 L 848.76,429.14 L 845.09,435.38 L 841.50,441.65 L 838.01,447.93 L 834.62,454.24 L 831.35,460.57 L 828.20,466.93 L 825.19,473.32 L 822.34,479.75 L 819.64,486.20 L 817.12,492.70 L 814.78,499.24 L 812.64,505.82 L 810.71,512.44 L 809.00,519.12 L 807.52,525.84 L 806.28,532.62 L 805.30,539.45 L 804.59,546.34 L 804.15,553.29 L 804.00,560.31 L 803.66,590.01 L 802.68,618.14 L 801.14,644.74 L 799.12,669.86 L 796.69,693.53 L 793.94,715.81 L 790.93,736.72 L 787.75,756.32 L 784.47,774.65 L 781.16,791.75 L 777.91,807.66 L 774.80,822.43 L 771.88,836.09 L 769.26,848.70 L 766.99,860.29 L 765.16,870.90 L 763.84,880.59 L 763.12,889.38 L 763.06,897.33 L 763.74,904.48 L 765.25,910.86 L 767.65,916.53 L 771.03,921.52 L 775.46,925.88 L 781.01,929.65 L 787.77,932.87 L 795.80,935.58 L 805.20,937.83 L 816.03,939.67 L 828.36,941.13 L 842.29,942.25 L 857.88,943.08 L 875.20,943.66 L 894.35,944.03 L 915.39,944.25 L 938.39,944.34 L 963.45,944.35 L 990.62,944.32 L 1020.00,944.31 L 876.00,1702.46 L 468.00,1702.46 L 432.00,944.31 L 396.00,1702.46 L 132.00,1702.46 Z"/>
    </clipPath>
  </defs>
  <path d="M 60.00,1702.46 L 60.00,176.31 M 71.55,137.19 L 103.66,135.20 M 103.66,135.20 L 133.74,132.69 M 133.74,132.69 L 161.78,129.69 M 161.78,129.69 L 187.78,126.20 M 187.78,126.20 L 211.73,122.27 M 211.73,122.27 L 233.58,117.91 M 233.58,117.91 L 253.34,113.15 M 253.34,113.15 L 270.95,108.00 M 270.95,108.00 L 286.39,102.49 M 286.39,102.49 L 299.64,96.63 M 299.64,96.63 L 310.65,90.42 M 310.65,90.42 L 319.40,83.88 M 319.40,83.88 L 325.87,77.01 M 325.87,77.01 L 330.04,69.80 M 394.77,60.00 L 941.21,242.15 M 983.59,341.11 L 980.28,348.14 M 980.28,348.14 L 976.53,355.70 M 976.53,355.70 L 972.70,363.11 M 972.70,363.11 L 968.80,370.38 M 968.80,370.38 L 964.84,377.51 M 964.84,377.51 L 960.83,384.51 M 960.83,384.51 L 956.79,391.38 M 956.79,391.38 L 952.74,398.14 M 952.74,398.14 L 948.69,404.78 M 948.69,404.78 L 944.65,411.32 M 944.65,411.32 L 940.62,417.75 M 940.62,417.75 L 936.64,424.09 M 936.64,424.09 L 932.70,430.33 M 932.70,430.33 L 928.82,436.47 M 928.82,436.47 L 925.00,442.53 M 925.00,442.53 L 921.27,448.50 M 921.27,448.50 L 917.64,454.38 M 917.64,454.38 L 914.10,460.17 M 914.10,460.17 L 910.68,465.88 M 910.68,465.88 L 907.38,471.50 M 907.38,471.50 L 904.21,477.03 M 904.21,477.03 L 901.19,482.47 M 901.19,482.47 L 898.31,487.82 M 898.31,487.82 L 895.59,493.07 M 895.59,493.07 L 893.04,498.23 M 893.04,498.23 L 890.66,503.29 M 890.66,503.29 L 888.46,508.25 M 888.46,508.25 L 886.43,513.10 M 886.43,513.10 L 884.59,517.85 M 884.59,517.85 L 882.92,522.49 M 882.92,522.49 L 881.45,527.03 M 881.45,527.03 L 880.15,531.46 M 880.15,531.46 L 879.04,535.80 M 879.04,535.80 L 878.11,540.04 M 878.11,540.04 L 877.35,544.20 M 877.35,544.20 L 876.76,548.29 M 876.76,548.29 L 876.34,552.32 M 876.34,552.32 L 876.09,556.31 M 876.09,556.31 L 875.98,561.83 M 876.00,561.14 L 875.64,591.65 M 875.64,591.65 L 874.60,621.45 M 874.60,621.45 L 872.97,649.68 M 872.97,649.68 L 870.82,676.39 M 870.82,676.39 L 868.24,701.60 M 868.24,701.60 L 865.31,725.33 M 865.31,725.33 L 862.11,747.60 M 862.11,747.60 L 858.73,768.42 M 858.73,768.42 L 855.26,787.81 M 855.26,787.81 L 851.79,805.77 M 851.79,805.77 L 848.41,822.30 M 848.41,822.30 L 845.23,837.37 M 845.23,837.37 L 842.33,850.95 M 842.33,850.95 L 839.83,862.98 M 839.83,862.98 L 837.79,873.35 M 837.79,873.35 L 836.31,881.93 M 836.31,881.93 L 835.41,888.49 M 835.41,888.49 L 835.04,892.75 M 835.04,892.75 L 835.00,894.34 M 835.00,894.34 L 834.82,892.97 M 834.82,892.97 L 833.74,888.65 M 833.74,888.65 L 704.36,950.85 M 704.36,950.85 L 715.75,967.65 M 715.75,967.65 L 730.00,981.71 M 730.00,981.71 L 745.47,992.26 M 745.47,992.26 L 760.96,999.69 M 760.96,999.69 L 776.07,1004.82 M 776.07,1004.82 L 790.94,1008.41 M 790.94,1008.41 L 805.90,1010.95 M 805.90,1010.95 L 821.33,1012.78 M 821.33,1012.78 L 837.54,1014.09 M 837.54,1014.09 L 854.79,1015.01 M 854.79,1015.01 L 873.32,1015.63 M 873.32,1015.63 L 893.30,1016.03 M 893.30,1016.03 L 914.89,1016.24 M 914.89,1016.24 L 938.24,1016.34 M 938.24,1016.34 L 963.46,1016.35 M 963.46,1016.35 L 990.68,1016.32 M 990.68,1016.32 L 1020.04,1016.31 M 1090.74,957.74 L 946.74,1715.89 M 876.00,1774.46 L 468.00,1774.46 M 396.00,1774.46 L 132.00,1774.46" fill="none" stroke="#2255aa"        stroke-width="0.75" stroke-dasharray="2 2" opacity="0.5"/>
  <path d="M 132.00,1702.46 L 132.00,176.31 Q 356.00,176.31 372.00,128.31 L 918.44,310.45 L 915.43,316.84 L 912.29,323.20 L 909.01,329.54 L 905.62,335.84 L 902.13,342.13 L 898.54,348.39 L 894.88,354.64 L 891.14,360.87 L 887.34,367.09 L 883.50,373.30 L 879.63,379.50 L 875.73,385.69 L 871.82,391.89 L 867.91,398.08 L 864.01,404.28 L 860.13,410.48 L 856.29,416.69 L 852.50,422.91 L 848.76,429.14 L 845.09,435.38 L 841.50,441.65 L 838.01,447.93 L 834.62,454.24 L 831.35,460.57 L 828.20,466.93 L 825.19,473.32 L 822.34,479.75 L 819.64,486.20 L 817.12,492.70 L 814.78,499.24 L 812.64,505.82 L 810.71,512.44 L 809.00,519.12 L 807.52,525.84 L 806.28,532.62 L 805.30,539.45 L 804.59,546.34 L 804.15,553.29 L 804.00,560.31 L 803.66,590.01 L 802.68,618.14 L 801.14,644.74 L 799.12,669.86 L 796.69,693.53 L 793.94,715.81 L 790.93,736.72 L 787.75,756.32 L 784.47,774.65 L 781.16,791.75 L 777.91,807.66 L 774.80,822.43 L 771.88,836.09 L 769.26,848.70 L 766.99,860.29 L 765.16,870.90 L 763.84,880.59 L 763.12,889.38 L 763.06,897.33 L 763.74,904.48 L 765.25,910.86 L 767.65,916.53 L 771.03,921.52 L 775.46,925.88 L 781.01,929.65 L 787.77,932.87 L 795.80,935.58 L 805.20,937.83 L 816.03,939.67 L 828.36,941.13 L 842.29,942.25 L 857.88,943.08 L 875.20,943.66 L 894.35,944.03 L 915.39,944.25 L 938.39,944.34 L 963.45,944.35 L 990.62,944.32 L 1020.00,944.31 L 876.00,1702.46 L 468.00,1702.46 L 432.00,944.31 L 396.00,1702.46 L 132.00,1702.46 Z" fill="#dce8f5" stroke="none" opacity="0.85"/>
  <g clip-path="url(#bodice-clip)">
    <line x1="1020.0" y1="176.3" x2="1020.0" y2="1808.3"          stroke="#aaa" stroke-width="0.75" stroke-dasharray="4 3"/>
    <line x1="132.0" y1="560.3" x2="1908.0" y2="560.3"          stroke="#aaa" stroke-width="0.75" stroke-dasharray="4 3"/>
    <line x1="132.0" y1="944.3" x2="1908.0" y2="944.3"          stroke="#aaa" stroke-width="0.75" stroke-dasharray="4 3"/>
    <line x1="132.0" y1="1702.5" x2="876.0" y2="1702.5"          stroke="#aaa" stroke-width="0.75" stroke-dasharray="4 3"/>
  </g>
  <g>
    <line x1="396.0" y1="1702.5" x2="468.0" y2="1702.5"          stroke="#bbb" stroke-width="0.75" stroke-dasharray="4 3"/>
    <line x1="432.0" y1="944.3" x2="432.0" y2="1702.5"          stroke="#bbb" stroke-width="0.75" stroke-dasharray="4 3"/>
  </g>
  <path d="M 132.00,1702.46 L 132.00,176.31 M 132.00,176.31 Q 356.00,176.31 372.00,128.31 M 372.00,128.31 L 918.44,310.45 M 918.44,310.45 L 915.43,316.84 L 912.29,323.20 L 909.01,329.54 L 905.62,335.84 L 902.13,342.13 L 898.54,348.39 L 894.88,354.64 L 891.14,360.87 L 887.34,367.09 L 883.50,373.30 L 879.63,379.50 L 875.73,385.69 L 871.82,391.89 L 867.91,398.08 L 864.01,404.28 L 860.13,410.48 L 856.29,416.69 L 852.50,422.91 L 848.76,429.14 L 845.09,435.38 L 841.50,441.65 L 838.01,447.93 L 834.62,454.24 L 831.35,460.57 L 828.20,466.93 L 825.19,473.32 L 822.34,479.75 L 819.64,486.20 L 817.12,492.70 L 814.78,499.24 L 812.64,505.82 L 810.71,512.44 L 809.00,519.12 L 807.52,525.84 L 806.28,532.62 L 805.30,539.45 L 804.59,546.34 L 804.15,553.29 L 804.00,560.31 M 804.00,560.31 L 803.66,590.01 L 802.68,618.14 L 801.14,644.74 L 799.12,669.86 L 796.69,693.53 L 793.94,715.81 L 790.93,736.72 L 787.75,756.32 L 784.47,774.65 L 781.16,791.75 L 777.91,807.66 L 774.80,822.43 L 771.88,836.09 L 769.26,848.70 L 766.99,860.29 L 765.16,870.90 L 763.84,880.59 L 763.12,889.38 L 763.06,897.33 L 763.74,904.48 L 765.25,910.86 L 767.65,916.53 L 771.03,921.52 L 775.46,925.88 L 781.01,929.65 L 787.77,932.87 L 795.80,935.58 L 805.20,937.83 L 816.03,939.67 L 828.36,941.13 L 842.29,942.25 L 857.88,943.08 L 875.20,943.66 L 894.35,944.03 L 915.39,944.25 L 938.39,944.34 L 963.45,944.35 L 990.62,944.32 L 1020.00,944.31 M 1020.00,944.31 L 876.00,1702.46 M 876.00,1702.46 L 468.00,1702.46 M 396.00,1702.46 L 132.00,1702.46" fill="none" stroke="#2255aa"        stroke-width="1.5" stroke-linejoin="round"/>
  <path d="M 468.00,1702.46 L 432.00,944.31 M 432.00,944.31 L 396.00,1702.46" fill="none" stroke="#bbb"        stroke-width="1" stroke-linejoin="round"/>
  <g clip-path="url(#bodice-clip)">
    <circle cx="132.0" cy="1808.3" r="3"            fill="white" stroke="#888" stroke-width="1"/>
    <circle cx="1908.0" cy="176.3" r="3"            fill="white" stroke="#888" stroke-width="1"/>
    <circle cx="1020.0" cy="176.3" r="3"            fill="white" stroke="#888" stroke-width="1"/>
    <circle cx="1020.0" cy="1808.3" r="3"            fill="white" stroke="#888" stroke-width="1"/>
    <circle cx="132.0" cy="560.3" r="3"            fill="white" stroke="#888" stroke-width="1"/>
    <circle cx="1908.0" cy="560.3" r="3"            fill="white" stroke="#888" stroke-width="1"/>
    <circle cx="132.0" cy="944.3" r="3"            fill="white" stroke="#888" stroke-width="1"/>
    <circle cx="1908.0" cy="944.3" r="3"            fill="white" stroke="#888" stroke-width="1"/>
    <circle cx="1371.8" cy="218.3" r="3"            fill="white" stroke="#888" stroke-width="1"/>
    <circle cx="1020.0" cy="1170.5" r="3"            fill="white" stroke="#888" stroke-width="1"/>
    <circle cx="876.0" cy="1808.3" r="3"            fill="white" stroke="#888" stroke-width="1"/>
    <circle cx="804.0" cy="272.3" r="3"            fill="white" stroke="#888" stroke-width="1"/>
    <circle cx="132.0" cy="176.3" r="2.5" fill="black"/>
    <circle cx="132.0" cy="1702.5" r="2.5" fill="black"/>
    <circle cx="372.0" cy="128.3" r="2.5" fill="black"/>
    <circle cx="918.4" cy="310.5" r="2.5" fill="black"/>
    <circle cx="804.0" cy="560.3" r="2.5" fill="black"/>
    <circle cx="1020.0" cy="944.3" r="2.5" fill="black"/>
    <circle cx="876.0" cy="1702.5" r="2.5" fill="black"/>
    <circle cx="396.0" cy="1702.5" r="2.5" fill="black"/>
    <circle cx="468.0" cy="1702.5" r="2.5" fill="black"/>
    <circle cx="432.0" cy="944.3" r="2.5" fill="black"/>
  </g>
  <text x="146.1" y="190.4"        font-family="monospace" font-size="11"        fill="#222" font-weight="bold"        text-anchor="middle" dominant-baseline="middle">A</text>
  <text x="146.1" y="1688.3"        font-family="monospace" font-size="11"        fill="#222" font-weight="bold"        text-anchor="middle" dominant-baseline="middle">GG</text>
  <text x="380.9" y="146.2"        font-family="monospace" font-size="11"        fill="#222" font-weight="bold"        text-anchor="middle" dominant-baseline="middle">AA</text>
  <text x="900.0" y="318.1"        font-family="monospace" font-size="11"        fill="#222" font-weight="bold"        text-anchor="middle" dominant-baseline="middle">DD</text>
  <text x="784.0" y="559.1"        font-family="monospace" font-size="11"        fill="#222" font-weight="bold"        text-anchor="middle" dominant-baseline="middle">BB</text>
  <text x="1000.1" y="942.6"        font-family="monospace" font-size="11"        fill="#222" font-weight="bold"        text-anchor="middle" dominant-baseline="middle">O</text>
  <text x="863.2" y="1687.1"        font-family="monospace" font-size="11"        fill="#222" font-weight="bold"        text-anchor="middle" dominant-baseline="middle">FF</text>
  <text x="382.2" y="1688.0"        font-family="monospace" font-size="11"        fill="#222" font-weight="bold"        text-anchor="middle" dominant-baseline="middle">XX</text>
  <text x="481.8" y="1688.0"        font-family="monospace" font-size="11"        fill="#222" font-weight="bold"        text-anchor="middle" dominant-baseline="middle">YY</text>
  <text x="432.0" y="924.3"        font-family="monospace" font-size="11"        fill="#222" font-weight="bold"        text-anchor="middle" dominant-baseline="middle">ZZ</text>
</svg>