<?xml version="1.0" encoding="UTF-8"?>
<svg xmlns="http://www.w3.org/2000/svg"
     width="1896" height="1800"
     viewBox="0 0 1896 1800">
  <rect width="100%" height="100%" fill="white"/>
  <defs>
    <clipPath id="bodice-clip">
      <path d="M 1836.00,348.00 L 1836.00,1740.00 L 1476.00,1740.00 L 1452.00,1100.69 L 1428.00,1740.00 L 996.00,1740.00 L 948.00,1148.69 L 1404.00,1004.69 L 948.00,1052.69 L 948.00,876.00 L 1546.38,510.09 L 1541.65,527.81 L 1534.00,545.16 L 1523.63,562.13 L 1510.74,578.73 L 1495.50,594.94 L 1478.12,610.75 L 1458.79,626.17 L 1437.71,641.18 L 1415.06,655.79 L 1391.04,669.98 L 1365.85,683.75 L 1339.68,697.09 L 1312.71,710.00 L 1285.15,722.48 L 1257.19,734.51 L 1229.02,746.09 L 1200.84,757.22 L 1172.83,767.89 L 1145.20,778.09 L 1118.13,787.82 L 1091.81,797.07 L 1066.45,805.85 L 1042.24,814.13 L 1019.36,821.92 L 998.02,829.21 L 978.40,836.00 L 960.70,842.27 L 945.12,848.03 L 931.84,853.27 L 921.06,857.98 L 912.97,862.16 L 907.77,865.80 L 905.65,868.89 L 906.80,871.44 L 911.41,873.42 L 919.69,874.85 L 931.82,875.71 L 948.00,876.00 L 1114.72,246.30 L 1126.96,252.28 L 1139.69,257.97 L 1152.87,263.40 L 1166.45,268.59 L 1180.40,273.57 L 1194.66,278.37 L 1209.19,283.02 L 1223.94,287.53 L 1238.88,291.94 L 1253.95,296.26 L 1269.11,300.54 L 1284.31,304.79 L 1299.52,309.04 L 1314.68,313.31 L 1329.75,317.64 L 1344.68,322.05 L 1359.44,326.56 L 1373.97,331.20 L 1388.23,336.00 L 1402.17,340.98 L 1415.76,346.18 L 1428.94,351.61 L 1441.67,357.30 L 1453.90,363.28 L 1465.60,369.57 L 1476.71,376.21 L 1487.19,383.21 L 1496.99,390.61 L 1506.08,398.43 L 1514.39,406.69 L 1521.90,415.43 L 1528.56,424.66 L 1534.31,434.42 L 1539.12,444.73 L 1542.94,455.61 L 1545.72,467.10 L 1547.42,479.22 L 1548.00,492.00 L 1103.03,240.00 L 1548.00,60.00 Q 1548.00,348.00 1836.00,348.00 Z"/>
    </clipPath>
  </defs>
  <path d="M 1836.00,348.00 L 1836.00,1740.00 L 1476.00,1740.00 L 1452.00,1100.69 L 1428.00,1740.00 L 996.00,1740.00 L 948.00,1148.69 L 1404.00,1004.69 L 948.00,1052.69 L 948.00,876.00 L 1546.38,510.09 L 1541.65,527.81 L 1534.00,545.16 L 1523.63,562.13 L 1510.74,578.73 L 1495.50,594.94 L 1478.12,610.75 L 1458.79,626.17 L 1437.71,641.18 L 1415.06,655.79 L 1391.04,669.98 L 1365.85,683.75 L 1339.68,697.09 L 1312.71,710.00 L 1285.15,722.48 L 1257.19,734.51 L 1229.02,746.09 L 1200.84,757.22 L 1172.83,767.89 L 1145.20,778.09 L 1118.13,787.82 L 1091.81,797.07 L 1066.45,805.85 L 1042.24,814.13 L 1019.36,821.92 L 998.02,829.21 L 978.40,836.00 L 960.70,842.27 L 945.12,848.03 L 931.84,853.27 L 921.06,857.98 L 912.97,862.16 L 907.77,865.80 L 905.65,868.89 L 906.80,871.44 L 911.41,873.42 L 919.69,874.85 L 931.82,875.71 L 948.00,876.00 L 1114.72,246.30 L 1126.96,252.28 L 1139.69,257.97 L 1152.87,263.40 L 1166.45,268.59 L 1180.40,273.57 L 1194.66,278.37 L 1209.19,283.02 L 1223.94,287.53 L 1238.88,291.94 L 1253.95,296.26 L 1269.11,300.54 L 1284.31,304.79 L 1299.52,309.04 L 1314.68,313.31 L 1329.75,317.64 L 1344.68,322.05 L 1359.44,326.56 L 1373.97,331.20 L 1388.23,336.00 L 1402.17,340.98 L 1415.76,346.18 L 1428.94,351.61 L 1441.67,357.30 L 1453.90,363.28 L 1465.60,369.57 L 1476.71,376.21 L 1487.19,383.21 L 1496.99,390.61 L 1506.08,398.43 L 1514.39,406.69 L 1521.90,415.43 L 1528.56,424.66 L 1534.31,434.42 L 1539.12,444.73 L 1542.94,455.61 L 1545.72,467.10 L 1547.42,479.22 L 1548.00,492.00 L 1103.03,240.00 L 1548.00,60.00 Q 1548.00,348.00 1836.00,348.00 Z" fill="#fdeede" stroke="none" opacity="0.85"/>
  <g clip-path="url(#bodice-clip)">
    <line x1="948.0" y1="108.0" x2="948.0" y2="1740.0"          stroke="#aaa" stroke-width="0.75" stroke-dasharray="4 3"/>
    <line x1="60.0" y1="492.0" x2="1836.0" y2="492.0"          stroke="#aaa" stroke-width="0.75" stroke-dasharray="4 3"/>
    <line x1="60.0" y1="876.0" x2="1836.0" y2="876.0"          stroke="#aaa" stroke-width="0.75" stroke-dasharray="4 3"/>
    <line x1="60.0" y1="1638.1" x2="852.0" y2="1638.1"          stroke="#aaa" stroke-width="0.75" stroke-dasharray="4 3"/>
  </g>
  <g>
    <line x1="948.0" y1="1052.7" x2="948.0" y2="1100.7"          stroke="#bbb" stroke-width="0.75" stroke-dasharray="4 3"/>
    <line x1="948.0" y1="1100.7" x2="948.0" y2="1148.7"          stroke="#bbb" stroke-width="0.75" stroke-dasharray="4 3"/>
    <line x1="948.0" y1="1100.7" x2="1404.0" y2="1004.7"          stroke="#bbb" stroke-width="0.75" stroke-dasharray="4 3"/>
    <line x1="1428.0" y1="1740.0" x2="1476.0" y2="1740.0"          stroke="#bbb" stroke-width="0.75" stroke-dasharray="4 3"/>
    <line x1="1452.0" y1="1100.7" x2="1452.0" y2="1740.0"          stroke="#bbb" stroke-width="0.75" stroke-dasharray="4 3"/>
  </g>
  <path d="M 1836.00,348.00 L 1836.00,1740.00 M 1836.00,1740.00 L 1476.00,1740.00 M 1428.00,1740.00 L 996.00,1740.00 M 996.00,1740.00 L 948.00,1148.69 M 948.00,1052.69 L 948.00,876.00 M 1548.00,492.00 L 1546.38,510.09 L 1541.65,527.81 L 1534.00,545.16 L 1523.63,562.13 L 1510.74,578.73 L 1495.50,594.94 L 1478.12,610.75 L 1458.79,626.17 L 1437.71,641.18 L 1415.06,655.79 L 1391.04,669.98 L 1365.85,683.75 L 1339.68,697.09 L 1312.71,710.00 L 1285.15,722.48 L 1257.19,734.51 L 1229.02,746.09 L 1200.84,757.22 L 1172.83,767.89 L 1145.20,778.09 L 1118.13,787.82 L 1091.81,797.07 L 1066.45,805.85 L 1042.24,814.13 L 1019.36,821.92 L 998.02,829.21 L 978.40,836.00 L 960.70,842.27 L 945.12,848.03 L 931.84,853.27 L 921.06,857.98 L 912.97,862.16 L 907.77,865.80 L 905.65,868.89 L 906.80,871.44 L 911.41,873.42 L 919.69,874.85 L 931.82,875.71 L 948.00,876.00 M 1103.03,240.00 L 1114.72,246.30 L 1126.96,252.28 L 1139.69,257.97 L 1152.87,263.40 L 1166.45,268.59 L 1180.40,273.57 L 1194.66,278.37 L 1209.19,283.02 L 1223.94,287.53 L 1238.88,291.94 L 1253.95,296.26 L 1269.11,300.54 L 1284.31,304.79 L 1299.52,309.04 L 1314.68,313.31 L 1329.75,317.64 L 1344.68,322.05 L 1359.44,326.56 L 1373.97,331.20 L 1388.23,336.00 L 1402.17,340.98 L 1415.76,346.18 L 1428.94,351.61 L 1441.67,357.30 L 1453.90,363.28 L 1465.60,369.57 L 1476.71,376.21 L 1487.19,383.21 L 1496.99,390.61 L 1506.08,398.43 L 1514.39,406.69 L 1521.90,415.43 L 1528.56,424.66 L 1534.31,434.42 L 1539.12,444.73 L 1542.94,455.61 L 1545.72,467.10 L 1547.42,479.22 L 1548.00,492.00 M 1548.00,492.00 L 1103.03,240.00 M 1103.03,240.00 L 1548.00,60.00 M 1548.00,60.00 Q 1548.00,348.00 1836.00,348.00" fill="none" stroke="#aa5522"        stroke-width="1.5" stroke-linejoin="round"/>
  <path d="M 1476.00,1740.00 L 1452.00,1100.69 M 1452.00,1100.69 L 1428.00,1740.00 M 948.00,1148.69 L 1404.00,1004.69 M 1404.00,1004.69 L 948.00,1052.69" fill="none" stroke="#bbb"        stroke-width="1" stroke-linejoin="round"/>
  <g clip-path="url(#bodice-clip)">
    <circle cx="60.0" cy="1740.0" r="3"            fill="white" stroke="#888" stroke-width="1"/>
    <circle cx="1836.0" cy="108.0" r="3"            fill="white" stroke="#888" stroke-width="1"/>
    <circle cx="948.0" cy="108.0" r="3"            fill="white" stroke="#888" stroke-width="1"/>
    <circle cx="948.0" cy="1740.0" r="3"            fill="white" stroke="#888" stroke-width="1"/>
    <circle cx="60.0" cy="492.0" r="3"            fill="white" stroke="#888" stroke-width="1"/>
    <circle cx="1836.0" cy="492.0" r="3"            fill="white" stroke="#888" stroke-width="1"/>
    <circle cx="60.0" cy="876.0" r="3"            fill="white" stroke="#888" stroke-width="1"/>
    <circle cx="1836.0" cy="876.0" r="3"            fill="white" stroke="#888" stroke-width="1"/>
    <circle cx="1325.5" cy="150.0" r="3"            fill="white" stroke="#888" stroke-width="1"/>
    <circle cx="948.0" cy="1100.7" r="3"            fill="white" stroke="#888" stroke-width="1"/>
    <circle cx="852.0" cy="1740.0" r="3"            fill="white" stroke="#888" stroke-width="1"/>
    <circle cx="324.0" cy="204.0" r="3"            fill="white" stroke="#888" stroke-width="1"/>
    <circle cx="1836.0" cy="1740.0" r="2.5" fill="black"/>
    <circle cx="1836.0" cy="348.0" r="2.5" fill="black"/>
    <circle cx="1548.0" cy="60.0" r="2.5" fill="black"/>
    <circle cx="1103.0" cy="240.0" r="2.5" fill="black"/>
    <circle cx="1548.0" cy="492.0" r="2.5" fill="black"/>
    <circle cx="948.0" cy="876.0" r="2.5" fill="black"/>
    <circle cx="996.0" cy="1740.0" r="2.5" fill="black"/>
    <circle cx="1404.0" cy="1004.7" r="2.5" fill="black"/>
    <circle cx="948.0" cy="1148.7" r="2.5" fill="black"/>
    <circle cx="1452.0" cy="1100.7" r="2.5" fill="black"/>
    <circle cx="948.0" cy="1052.7" r="2.5" fill="black"/>
    <circle cx="1428.0" cy="1740.0" r="2.5" fill="black"/>
    <circle cx="1476.0" cy="1740.0" r="2.5" fill="black"/>
    <circle cx="1452.0" cy="1004.7" r="2.5" fill="black"/>
  </g>
  <text x="1821.9" y="1725.9"        font-family="monospace" font-size="11"        fill="#222" font-weight="bold"        text-anchor="middle" dominant-baseline="middle">D</text>
  <text x="1821.9" y="362.1"        font-family="monospace" font-size="11"        fill="#222" font-weight="bold"        text-anchor="middle" dominant-baseline="middle">M</text>
  <text x="1536.8" y="76.6"        font-family="monospace" font-size="11"        fill="#222" font-weight="bold"        text-anchor="middle" dominant-baseline="middle">K</text>
  <text x="1123.0" y="241.3"        font-family="monospace" font-size="11"        fill="#222" font-weight="bold"        text-anchor="middle" dominant-baseline="middle">N</text>
  <text x="1536.4" y="475.7"        font-family="monospace" font-size="11"        fill="#222" font-weight="bold"        text-anchor="middle" dominant-baseline="middle">P</text>
  <text x="962.9" y="862.7"        font-family="monospace" font-size="11"        fill="#222" font-weight="bold"        text-anchor="middle" dominant-baseline="middle">O</text>
  <text x="1009.6" y="1725.3"        font-family="monospace" font-size="11"        fill="#222" font-weight="bold"        text-anchor="middle" dominant-baseline="middle">Q</text>
  <text x="1416.5" y="989.1"        font-family="monospace" font-size="11"        fill="#222" font-weight="bold"        text-anchor="middle" dominant-baseline="middle">T</text>
  <text x="944.1" y="1129.1"        font-family="monospace" font-size="11"        fill="#222" font-weight="bold"        text-anchor="middle" dominant-baseline="middle">V</text>
  <text x="1452.0" y="1080.7"        font-family="monospace" font-size="11"        fill="#222" font-weight="bold"        text-anchor="middle" dominant-baseline="middle">W</text>
  <text x="961.4" y="1037.8"        font-family="monospace" font-size="11"        fill="#222" font-weight="bold"        text-anchor="middle" dominant-baseline="middle">UU</text>
  <text x="1414.1" y="1725.6"        font-family="monospace" font-size="11"        fill="#222" font-weight="bold"        text-anchor="middle" dominant-baseline="middle">VV</text>
  <text x="1489.9" y="1725.6"        font-family="monospace" font-size="11"        fill="#222" font-weight="bold"        text-anchor="middle" dominant-baseline="middle">WW</text>
  <text x="1449.9" y="984.8"        font-family="monospace" font-size="11"        fill="#222" font-weight="bold"        text-anchor="middle" dominant-baseline="middle">S</text>
</svg>