<?xml version="1.0" encoding="UTF-8"?>
<svg xmlns="http://www.w3.org/2000/svg"
     width="6000" height="6000"
     viewBox="0 0 6000 6000">
  <rect width="100%" height="100%" fill="white"/>
  <defs>
    <style>@import url('https://fonts.googleapis.com/css2?family=Martian+Mono:wght@400;700&display=swap');</style>
    <clipPath id="bodice-clip">
      <path d="M 5700.00,1268.18 L 5700.00,5618.18 L 4800.00,5618.18 L 4575.00,3621.32 L 4350.00,5618.18 L 3375.00,5618.18 L 2925.00,3771.32 L 4425.00,3321.32 L 2925.00,3471.32 L 2925.00,2918.18 L 2980.29,2917.58 L 3033.69,2915.77 L 3085.21,2912.72 L 3134.88,2908.39 L 3182.73,2902.75 L 3228.77,2895.79 L 3273.04,2887.45 L 3315.57,2877.72 L 3356.36,2866.56 L 3395.46,2853.95 L 3432.87,2839.85 L 3468.64,2824.23 L 3502.78,2807.07 L 3535.31,2788.33 L 3566.27,2767.97 L 3595.68,2745.99 L 3623.55,2722.33 L 3649.93,2696.97 L 3674.82,2669.88 L 3698.26,2641.03 L 3720.27,2610.40 L 3740.87,2577.94 L 3760.09,2543.63 L 3777.96,2507.44 L 3794.49,2469.34 L 3809.72,2429.29 L 3823.67,2387.27 L 3836.36,2343.25 L 3847.81,2297.20 L 3858.06,2249.09 L 3867.13,2198.88 L 3875.03,2146.54 L 3881.80,2092.05 L 3887.47,2035.38 L 3892.04,1976.49 L 3895.56,1915.36 L 3898.04,1851.95 L 3899.52,1786.23 L 3900.00,1718.18 L 3899.58,1696.40 L 3898.32,1674.78 L 3896.28,1653.32 L 3893.47,1632.02 L 3889.93,1610.86 L 3885.70,1589.83 L 3880.81,1568.94 L 3875.29,1548.18 L 3869.17,1527.53 L 3862.49,1507.00 L 3855.28,1486.57 L 3847.57,1466.24 L 3839.40,1446.01 L 3830.80,1425.86 L 3821.80,1405.79 L 3812.44,1385.79 L 3802.75,1365.86 L 3792.76,1345.98 L 3782.51,1326.16 L 3772.02,1306.39 L 3761.33,1286.65 L 3750.48,1266.95 L 3739.50,1247.28 L 3728.42,1227.62 L 3717.27,1207.98 L 3706.09,1188.34 L 3694.90,1168.71 L 3683.76,1149.07 L 3672.67,1129.41 L 3661.69,1109.74 L 3650.84,1090.03 L 3640.15,1070.30 L 3629.67,1050.53 L 3619.41,1030.71 L 3609.42,1010.83 L 3599.73,990.90 L 3590.37,970.90 L 3581.37,950.83 L 3572.77,930.68 L 4800.00,368.18 Q 4800.00,1268.18 5700.00,1268.18 Z"/>
    </clipPath>
  </defs>
  <path d="M 4350.00,5768.18 L 3257.16,5768.18 L 2779.26,3806.83" fill="none" stroke="#aa5522"        stroke-width="5" stroke-dasharray="6 6" opacity="0.5"        stroke-linecap="round"/>
  <path d="M 2775.00,3471.32 L 2775.00,2918.18" fill="none" stroke="#aa5522"        stroke-width="5" stroke-dasharray="6 6" opacity="0.5"        stroke-linecap="round"/>
  <path d="M 3510.27,794.32 L 4737.50,231.82" fill="none" stroke="#aa5522"        stroke-width="5" stroke-dasharray="6 6" opacity="0.5"        stroke-linecap="round"/>
  <path d="M 5850.00,1268.18 L 5850.00,5768.18 L 4800.00,5768.18" fill="none" stroke="#aa5522"        stroke-width="5" stroke-dasharray="6 6" opacity="0.5"        stroke-linecap="round"/>
  <path d="M 5700.00,1268.18 L 5700.00,5618.18 L 4800.00,5618.18 L 4575.00,3621.32 L 4350.00,5618.18 L 3375.00,5618.18 L 2925.00,3771.32 L 4425.00,3321.32 L 2925.00,3471.32 L 2925.00,2918.18 L 2980.29,2917.58 L 3033.69,2915.77 L 3085.21,2912.72 L 3134.88,2908.39 L 3182.73,2902.75 L 3228.77,2895.79 L 3273.04,2887.45 L 3315.57,2877.72 L 3356.36,2866.56 L 3395.46,2853.95 L 3432.87,2839.85 L 3468.64,2824.23 L 3502.78,2807.07 L 3535.31,2788.33 L 3566.27,2767.97 L 3595.68,2745.99 L 3623.55,2722.33 L 3649.93,2696.97 L 3674.82,2669.88 L 3698.26,2641.03 L 3720.27,2610.40 L 3740.87,2577.94 L 3760.09,2543.63 L 3777.96,2507.44 L 3794.49,2469.34 L 3809.72,2429.29 L 3823.67,2387.27 L 3836.36,2343.25 L 3847.81,2297.20 L 3858.06,2249.09 L 3867.13,2198.88 L 3875.03,2146.54 L 3881.80,2092.05 L 3887.47,2035.38 L 3892.04,1976.49 L 3895.56,1915.36 L 3898.04,1851.95 L 3899.52,1786.23 L 3900.00,1718.18 L 3899.58,1696.40 L 3898.32,1674.78 L 3896.28,1653.32 L 3893.47,1632.02 L 3889.93,1610.86 L 3885.70,1589.83 L 3880.81,1568.94 L 3875.29,1548.18 L 3869.17,1527.53 L 3862.49,1507.00 L 3855.28,1486.57 L 3847.57,1466.24 L 3839.40,1446.01 L 3830.80,1425.86 L 3821.80,1405.79 L 3812.44,1385.79 L 3802.75,1365.86 L 3792.76,1345.98 L 3782.51,1326.16 L 3772.02,1306.39 L 3761.33,1286.65 L 3750.48,1266.95 L 3739.50,1247.28 L 3728.42,1227.62 L 3717.27,1207.98 L 3706.09,1188.34 L 3694.90,1168.71 L 3683.76,1149.07 L 3672.67,1129.41 L 3661.69,1109.74 L 3650.84,1090.03 L 3640.15,1070.30 L 3629.67,1050.53 L 3619.41,1030.71 L 3609.42,1010.83 L 3599.73,990.90 L 3590.37,970.90 L 3581.37,950.83 L 3572.77,930.68 L 4800.00,368.18 Q 4800.00,1268.18 5700.00,1268.18 Z" fill="#fdeede" stroke="none" opacity="0.85"/>
  <g clip-path="url(#bodice-clip)">
    <line x1="2925.0" y1="518.2" x2="2925.0" y2="5618.2"          stroke="#aaa" stroke-width="5" stroke-dasharray="12 9"/>
    <line x1="150.0" y1="1718.2" x2="5700.0" y2="1718.2"          stroke="#aaa" stroke-width="5" stroke-dasharray="12 9"/>
    <line x1="150.0" y1="2918.2" x2="5700.0" y2="2918.2"          stroke="#aaa" stroke-width="5" stroke-dasharray="12 9"/>
    <line x1="150.0" y1="5275.0" x2="2325.0" y2="5275.0"          stroke="#aaa" stroke-width="5" stroke-dasharray="12 9"/>
  </g>
  <g>
    <line x1="2925.0" y1="3471.3" x2="2925.0" y2="3621.3"          stroke="#bbb" stroke-width="5" stroke-dasharray="12 9"/>
    <line x1="2925.0" y1="3621.3" x2="2925.0" y2="3771.3"          stroke="#bbb" stroke-width="5" stroke-dasharray="12 9"/>
    <line x1="2925.0" y1="3621.3" x2="4425.0" y2="3321.3"          stroke="#bbb" stroke-width="5" stroke-dasharray="12 9"/>
    <line x1="4350.0" y1="5618.2" x2="4800.0" y2="5618.2"          stroke="#bbb" stroke-width="5" stroke-dasharray="12 9"/>
    <line x1="4575.0" y1="3621.3" x2="4575.0" y2="5618.2"          stroke="#bbb" stroke-width="5" stroke-dasharray="12 9"/>
  </g>
  <path d="M 5700.00,1268.18 L 5700.00,5618.18 M 5700.00,5618.18 L 4800.00,5618.18 M 4350.00,5618.18 L 3375.00,5618.18 M 3375.00,5618.18 L 2925.00,3771.32 M 2925.00,3471.32 L 2925.00,2918.18 M 2925.00,2918.18 L 2980.29,2917.58 L 3033.69,2915.77 L 3085.21,2912.72 L 3134.88,2908.39 L 3182.73,2902.75 L 3228.77,2895.79 L 3273.04,2887.45 L 3315.57,2877.72 L 3356.36,2866.56 L 3395.46,2853.95 L 3432.87,2839.85 L 3468.64,2824.23 L 3502.78,2807.07 L 3535.31,2788.33 L 3566.27,2767.97 L 3595.68,2745.99 L 3623.55,2722.33 L 3649.93,2696.97 L 3674.82,2669.88 L 3698.26,2641.03 L 3720.27,2610.40 L 3740.87,2577.94 L 3760.09,2543.63 L 3777.96,2507.44 L 3794.49,2469.34 L 3809.72,2429.29 L 3823.67,2387.27 L 3836.36,2343.25 L 3847.81,2297.20 L 3858.06,2249.09 L 3867.13,2198.88 L 3875.03,2146.54 L 3881.80,2092.05 L 3887.47,2035.38 L 3892.04,1976.49 L 3895.56,1915.36 L 3898.04,1851.95 L 3899.52,1786.23 L 3900.00,1718.18 M 3900.00,1718.18 L 3899.58,1696.40 L 3898.32,1674.78 L 3896.28,1653.32 L 3893.47,1632.02 L 3889.93,1610.86 L 3885.70,1589.83 L 3880.81,1568.94 L 3875.29,1548.18 L 3869.17,1527.53 L 3862.49,1507.00 L 3855.28,1486.57 L 3847.57,1466.24 L 3839.40,1446.01 L 3830.80,1425.86 L 3821.80,1405.79 L 3812.44,1385.79 L 3802.75,1365.86 L 3792.76,1345.98 L 3782.51,1326.16 L 3772.02,1306.39 L 3761.33,1286.65 L 3750.48,1266.95 L 3739.50,1247.28 L 3728.42,1227.62 L 3717.27,1207.98 L 3706.09,1188.34 L 3694.90,1168.71 L 3683.76,1149.07 L 3672.67,1129.41 L 3661.69,1109.74 L 3650.84,1090.03 L 3640.15,1070.30 L 3629.67,1050.53 L 3619.41,1030.71 L 3609.42,1010.83 L 3599.73,990.90 L 3590.37,970.90 L 3581.37,950.83 L 3572.77,930.68 M 3572.77,930.68 L 4800.00,368.18 M 4800.00,368.18 Q 4800.00,1268.18 5700.00,1268.18" fill="none" stroke="#aa5522"        stroke-width="5" stroke-linejoin="round"/>
  <path d="M 4800.00,5618.18 L 4575.00,3621.32 M 4575.00,3621.32 L 4350.00,5618.18 M 2925.00,3771.32 L 4425.00,3321.32 M 4425.00,3321.32 L 2925.00,3471.32" fill="none" stroke="#bbb"        stroke-width="3" stroke-linejoin="round"/>
  <g clip-path="url(#bodice-clip)">
    <circle cx="150.0" cy="5618.2" r="9"            fill="white" stroke="#888" stroke-width="3"/>
    <circle cx="5700.0" cy="518.2" r="9"            fill="white" stroke="#888" stroke-width="3"/>
    <circle cx="2925.0" cy="518.2" r="9"            fill="white" stroke="#888" stroke-width="3"/>
    <circle cx="2925.0" cy="5618.2" r="9"            fill="white" stroke="#888" stroke-width="3"/>
    <circle cx="150.0" cy="1718.2" r="9"            fill="white" stroke="#888" stroke-width="3"/>
    <circle cx="5700.0" cy="1718.2" r="9"            fill="white" stroke="#888" stroke-width="3"/>
    <circle cx="150.0" cy="2918.2" r="9"            fill="white" stroke="#888" stroke-width="3"/>
    <circle cx="5700.0" cy="2918.2" r="9"            fill="white" stroke="#888" stroke-width="3"/>
    <circle cx="4186.4" cy="649.4" r="9"            fill="white" stroke="#888" stroke-width="3"/>
    <circle cx="2925.0" cy="3621.3" r="9"            fill="white" stroke="#888" stroke-width="3"/>
    <circle cx="2325.0" cy="5618.2" r="9"            fill="white" stroke="#888" stroke-width="3"/>
    <circle cx="2100.0" cy="818.2" r="9"            fill="white" stroke="#888" stroke-width="3"/>
    <circle cx="5700.0" cy="5618.2" r="8" fill="black"/>
  <text x="5656.9" y="5542.6"        font-family="'Martian Mono', monospace" font-size="34"        fill="#222" font-weight="bold"        text-anchor="middle" dominant-baseline="middle">D</text>
    <circle cx="5700.0" cy="1268.2" r="8" fill="black"/>
  <text x="5621.7" y="1306.2"        font-family="'Martian Mono', monospace" font-size="34"        fill="#222" font-weight="bold"        text-anchor="middle" dominant-baseline="middle">M</text>
    <circle cx="4800.0" cy="368.2" r="8" fill="black"/>
  <text x="4759.0" y="444.9"        font-family="'Martian Mono', monospace" font-size="34"        fill="#222" font-weight="bold"        text-anchor="middle" dominant-baseline="middle">K</text>
    <circle cx="3572.8" cy="930.7" r="8" fill="black"/>
  <text x="3637.9" y="988.4"        font-family="'Martian Mono', monospace" font-size="34"        fill="#222" font-weight="bold"        text-anchor="middle" dominant-baseline="middle">N</text>
    <circle cx="3900.0" cy="1718.2" r="8" fill="black"/>
  <text x="3986.9" y="1714.1"        font-family="'Martian Mono', monospace" font-size="34"        fill="#222" font-weight="bold"        text-anchor="middle" dominant-baseline="middle">P</text>
    <circle cx="2925.0" cy="2918.2" r="8" fill="black"/>
  <text x="3008.4" y="2893.2"        font-family="'Martian Mono', monospace" font-size="34"        fill="#222" font-weight="bold"        text-anchor="middle" dominant-baseline="middle">O</text>
    <circle cx="3375.0" cy="5618.2" r="8" fill="black"/>
  <text x="3405.7" y="5536.8"        font-family="'Martian Mono', monospace" font-size="34"        fill="#222" font-weight="bold"        text-anchor="middle" dominant-baseline="middle">Q</text>
    <circle cx="4425.0" cy="3321.3" r="8" fill="black"/>
  <text x="4452.7" y="3238.8"        font-family="'Martian Mono', monospace" font-size="34"        fill="#222" font-weight="bold"        text-anchor="middle" dominant-baseline="middle">T</text>
    <circle cx="2925.0" cy="3771.3" r="8" fill="black"/>
  <text x="2999.5" y="3726.4"        font-family="'Martian Mono', monospace" font-size="34"        fill="#222" font-weight="bold"        text-anchor="middle" dominant-baseline="middle">V</text>
    <circle cx="4575.0" cy="3621.3" r="8" fill="black"/>
  <text x="4563.0" y="3535.2"        font-family="'Martian Mono', monospace" font-size="34"        fill="#222" font-weight="bold"        text-anchor="middle" dominant-baseline="middle">W</text>
    <circle cx="2925.0" cy="3471.3" r="8" fill="black"/>
  <text x="2977.9" y="3402.2"        font-family="'Martian Mono', monospace" font-size="34"        fill="#222" font-weight="bold"        text-anchor="middle" dominant-baseline="middle">UU</text>
    <circle cx="4350.0" cy="5618.2" r="8" fill="black"/>
  <text x="4325.7" y="5534.6"        font-family="'Martian Mono', monospace" font-size="34"        fill="#222" font-weight="bold"        text-anchor="middle" dominant-baseline="middle">VV</text>
    <circle cx="4800.0" cy="5618.2" r="8" fill="black"/>
  <text x="4812.2" y="5532.0"        font-family="'Martian Mono', monospace" font-size="34"        fill="#222" font-weight="bold"        text-anchor="middle" dominant-baseline="middle">WW</text>
    <circle cx="4575.0" cy="3321.3" r="8" fill="black"/>
  <text x="4553.4" y="3237.0"        font-family="'Martian Mono', monospace" font-size="34"        fill="#222" font-weight="bold"        text-anchor="middle" dominant-baseline="middle">S</text>
  </g>
</svg>