<?xml version="1.0" encoding="UTF-8"?>
<svg xmlns="http://www.w3.org/2000/svg"
     width="1944" height="1800"
     viewBox="0 0 1944 1800">
  <rect width="100%" height="100%" fill="white"/>
  <defs>
    <clipPath id="bodice-clip">
      <path d="M 108.00,1638.13 L 108.00,108.00 Q 60.00,108.00 348.00,60.00 L 434.80,580.82 L 433.22,578.48 L 431.70,576.04 L 430.22,573.50 L 428.80,570.87 L 427.41,568.16 L 426.06,565.37 L 424.75,562.53 L 423.46,559.63 L 422.19,556.68 L 420.95,553.70 L 419.71,550.69 L 418.49,547.67 L 417.27,544.63 L 416.06,541.60 L 414.83,538.57 L 413.60,535.56 L 412.35,532.58 L 411.09,529.64 L 409.80,526.74 L 408.49,523.89 L 407.14,521.11 L 405.75,518.40 L 404.33,515.76 L 402.85,513.22 L 401.33,510.78 L 399.75,508.45 L 398.10,506.23 L 396.40,504.14 L 394.62,502.18 L 392.77,500.37 L 390.84,498.71 L 388.83,497.21 L 386.73,495.88 L 384.53,494.73 L 382.24,493.77 L 379.84,493.01 L 377.34,492.46 L 374.73,492.12 L 372.00,492.00 L 355.37,492.28 L 342.94,493.10 L 334.49,494.47 L 329.82,496.37 L 328.75,498.82 L 331.06,501.80 L 336.55,505.30 L 345.04,509.34 L 356.31,513.90 L 370.16,518.97 L 386.40,524.57 L 404.82,530.67 L 425.23,537.28 L 447.42,544.40 L 471.20,552.02 L 496.36,560.14 L 522.70,568.75 L 550.02,577.85 L 578.13,587.44 L 606.82,597.51 L 635.89,608.06 L 665.14,619.09 L 694.37,630.59 L 723.38,642.56 L 751.98,655.00 L 779.95,667.90 L 807.10,681.25 L 833.23,695.07 L 858.14,709.33 L 881.63,724.04 L 903.50,739.20 L 923.54,754.79 L 941.56,770.82 L 957.36,787.29 L 970.74,804.19 L 981.49,821.51 L 989.42,839.26 L 994.32,857.42 L 996.00,876.00 L 900.00,1638.13 L 456.00,1638.13 L 432.00,876.00 L 408.00,1638.13 L 108.00,1638.13 Z"/>
    </clipPath>
  </defs>
  <path d="M 108.00,1638.13 L 108.00,108.00 Q 60.00,108.00 348.00,60.00 L 434.80,580.82 L 433.22,578.48 L 431.70,576.04 L 430.22,573.50 L 428.80,570.87 L 427.41,568.16 L 426.06,565.37 L 424.75,562.53 L 423.46,559.63 L 422.19,556.68 L 420.95,553.70 L 419.71,550.69 L 418.49,547.67 L 417.27,544.63 L 416.06,541.60 L 414.83,538.57 L 413.60,535.56 L 412.35,532.58 L 411.09,529.64 L 409.80,526.74 L 408.49,523.89 L 407.14,521.11 L 405.75,518.40 L 404.33,515.76 L 402.85,513.22 L 401.33,510.78 L 399.75,508.45 L 398.10,506.23 L 396.40,504.14 L 394.62,502.18 L 392.77,500.37 L 390.84,498.71 L 388.83,497.21 L 386.73,495.88 L 384.53,494.73 L 382.24,493.77 L 379.84,493.01 L 377.34,492.46 L 374.73,492.12 L 372.00,492.00 L 355.37,492.28 L 342.94,493.10 L 334.49,494.47 L 329.82,496.37 L 328.75,498.82 L 331.06,501.80 L 336.55,505.30 L 345.04,509.34 L 356.31,513.90 L 370.16,518.97 L 386.40,524.57 L 404.82,530.67 L 425.23,537.28 L 447.42,544.40 L 471.20,552.02 L 496.36,560.14 L 522.70,568.75 L 550.02,577.85 L 578.13,587.44 L 606.82,597.51 L 635.89,608.06 L 665.14,619.09 L 694.37,630.59 L 723.38,642.56 L 751.98,655.00 L 779.95,667.90 L 807.10,681.25 L 833.23,695.07 L 858.14,709.33 L 881.63,724.04 L 903.50,739.20 L 923.54,754.79 L 941.56,770.82 L 957.36,787.29 L 970.74,804.19 L 981.49,821.51 L 989.42,839.26 L 994.32,857.42 L 996.00,876.00 L 900.00,1638.13 L 456.00,1638.13 L 432.00,876.00 L 408.00,1638.13 L 108.00,1638.13 Z" fill="#dce8f5" stroke="none" opacity="0.85"/>
  <g clip-path="url(#bodice-clip)">
    <line x1="996.0" y1="108.0" x2="996.0" y2="1740.0"          stroke="#aaa" stroke-width="0.75" stroke-dasharray="4 3"/>
    <line x1="108.0" y1="492.0" x2="1884.0" y2="492.0"          stroke="#aaa" stroke-width="0.75" stroke-dasharray="4 3"/>
    <line x1="108.0" y1="876.0" x2="1884.0" y2="876.0"          stroke="#aaa" stroke-width="0.75" stroke-dasharray="4 3"/>
    <line x1="108.0" y1="1638.1" x2="900.0" y2="1638.1"          stroke="#aaa" stroke-width="0.75" stroke-dasharray="4 3"/>
  </g>
  <g>
    <line x1="408.0" y1="1638.1" x2="456.0" y2="1638.1"          stroke="#bbb" stroke-width="0.75" stroke-dasharray="4 3"/>
    <line x1="432.0" y1="876.0" x2="432.0" y2="1638.1"          stroke="#bbb" stroke-width="0.75" stroke-dasharray="4 3"/>
  </g>
  <path d="M 108.00,1638.13 L 108.00,108.00 M 108.00,108.00 Q 60.00,108.00 348.00,60.00 M 348.00,60.00 L 434.80,580.82 M 434.80,580.82 L 433.22,578.48 L 431.70,576.04 L 430.22,573.50 L 428.80,570.87 L 427.41,568.16 L 426.06,565.37 L 424.75,562.53 L 423.46,559.63 L 422.19,556.68 L 420.95,553.70 L 419.71,550.69 L 418.49,547.67 L 417.27,544.63 L 416.06,541.60 L 414.83,538.57 L 413.60,535.56 L 412.35,532.58 L 411.09,529.64 L 409.80,526.74 L 408.49,523.89 L 407.14,521.11 L 405.75,518.40 L 404.33,515.76 L 402.85,513.22 L 401.33,510.78 L 399.75,508.45 L 398.10,506.23 L 396.40,504.14 L 394.62,502.18 L 392.77,500.37 L 390.84,498.71 L 388.83,497.21 L 386.73,495.88 L 384.53,494.73 L 382.24,493.77 L 379.84,493.01 L 377.34,492.46 L 374.73,492.12 L 372.00,492.00 M 372.00,492.00 L 355.37,492.28 L 342.94,493.10 L 334.49,494.47 L 329.82,496.37 L 328.75,498.82 L 331.06,501.80 L 336.55,505.30 L 345.04,509.34 L 356.31,513.90 L 370.16,518.97 L 386.40,524.57 L 404.82,530.67 L 425.23,537.28 L 447.42,544.40 L 471.20,552.02 L 496.36,560.14 L 522.70,568.75 L 550.02,577.85 L 578.13,587.44 L 606.82,597.51 L 635.89,608.06 L 665.14,619.09 L 694.37,630.59 L 723.38,642.56 L 751.98,655.00 L 779.95,667.90 L 807.10,681.25 L 833.23,695.07 L 858.14,709.33 L 881.63,724.04 L 903.50,739.20 L 923.54,754.79 L 941.56,770.82 L 957.36,787.29 L 970.74,804.19 L 981.49,821.51 L 989.42,839.26 L 994.32,857.42 L 996.00,876.00 M 996.00,876.00 L 900.00,1638.13 M 900.00,1638.13 L 456.00,1638.13 M 408.00,1638.13 L 108.00,1638.13" fill="none" stroke="#2255aa"        stroke-width="1.5" stroke-linejoin="round"/>
  <path d="M 456.00,1638.13 L 432.00,876.00 M 432.00,876.00 L 408.00,1638.13" fill="none" stroke="#bbb"        stroke-width="1" stroke-linejoin="round"/>
  <g clip-path="url(#bodice-clip)">
    <circle cx="108.0" cy="1740.0" r="3"            fill="white" stroke="#888" stroke-width="1"/>
    <circle cx="1884.0" cy="108.0" r="3"            fill="white" stroke="#888" stroke-width="1"/>
    <circle cx="996.0" cy="108.0" r="3"            fill="white" stroke="#888" stroke-width="1"/>
    <circle cx="996.0" cy="1740.0" r="3"            fill="white" stroke="#888" stroke-width="1"/>
    <circle cx="108.0" cy="492.0" r="3"            fill="white" stroke="#888" stroke-width="1"/>
    <circle cx="1884.0" cy="492.0" r="3"            fill="white" stroke="#888" stroke-width="1"/>
    <circle cx="108.0" cy="876.0" r="3"            fill="white" stroke="#888" stroke-width="1"/>
    <circle cx="1884.0" cy="876.0" r="3"            fill="white" stroke="#888" stroke-width="1"/>
    <circle cx="1596.0" cy="348.0" r="3"            fill="white" stroke="#888" stroke-width="1"/>
    <circle cx="1373.5" cy="150.0" r="3"            fill="white" stroke="#888" stroke-width="1"/>
    <circle cx="996.0" cy="1100.7" r="3"            fill="white" stroke="#888" stroke-width="1"/>
    <circle cx="900.0" cy="1740.0" r="3"            fill="white" stroke="#888" stroke-width="1"/>
    <circle cx="372.0" cy="204.0" r="3"            fill="white" stroke="#888" stroke-width="1"/>
    <circle cx="108.0" cy="108.0" r="2.5" fill="black"/>
    <circle cx="108.0" cy="1638.1" r="2.5" fill="black"/>
    <circle cx="348.0" cy="60.0" r="2.5" fill="black"/>
    <circle cx="434.8" cy="580.8" r="2.5" fill="black"/>
    <circle cx="372.0" cy="492.0" r="2.5" fill="black"/>
    <circle cx="996.0" cy="876.0" r="2.5" fill="black"/>
    <circle cx="900.0" cy="1638.1" r="2.5" fill="black"/>
    <circle cx="408.0" cy="1638.1" r="2.5" fill="black"/>
    <circle cx="456.0" cy="1638.1" r="2.5" fill="black"/>
    <circle cx="432.0" cy="876.0" r="2.5" fill="black"/>
  </g>
  <text x="93.9" y="122.1"        font-family="monospace" font-size="11"        fill="#222" font-weight="bold"        text-anchor="middle" dominant-baseline="middle">A</text>
  <text x="122.1" y="1624.0"        font-family="monospace" font-size="11"        fill="#222" font-weight="bold"        text-anchor="middle" dominant-baseline="middle">GG</text>
  <text x="336.4" y="76.3"        font-family="monospace" font-size="11"        fill="#222" font-weight="bold"        text-anchor="middle" dominant-baseline="middle">AA</text>
  <text x="427.9" y="562.1"        font-family="monospace" font-size="11"        fill="#222" font-weight="bold"        text-anchor="middle" dominant-baseline="middle">DD</text>
  <text x="372.7" y="472.0"        font-family="monospace" font-size="11"        fill="#222" font-weight="bold"        text-anchor="middle" dominant-baseline="middle">BB</text>
  <text x="976.1" y="878.1"        font-family="monospace" font-size="11"        fill="#222" font-weight="bold"        text-anchor="middle" dominant-baseline="middle">O</text>
  <text x="886.8" y="1623.1"        font-family="monospace" font-size="11"        fill="#222" font-weight="bold"        text-anchor="middle" dominant-baseline="middle">FF</text>
  <text x="394.1" y="1623.8"        font-family="monospace" font-size="11"        fill="#222" font-weight="bold"        text-anchor="middle" dominant-baseline="middle">XX</text>
  <text x="469.9" y="1623.8"        font-family="monospace" font-size="11"        fill="#222" font-weight="bold"        text-anchor="middle" dominant-baseline="middle">YY</text>
  <text x="432.0" y="856.0"        font-family="monospace" font-size="11"        fill="#222" font-weight="bold"        text-anchor="middle" dominant-baseline="middle">ZZ</text>
</svg>