<?xml version="1.0" encoding="UTF-8"?>
<svg xmlns="http://www.w3.org/2000/svg"
     width="1968" height="1940"
     viewBox="0 0 1968 1940">
  <rect width="100%" height="100%" fill="white"/>
  <defs>
    <clipPath id="bodice-clip">
      <path d="M 1836.00,415.69 L 1836.00,1807.69 L 1452.00,1807.69 L 1416.00,1169.84 L 1380.00,1807.69 L 1044.00,1807.69 L 948.00,1217.84 L 1368.00,1073.84 L 948.00,1121.84 L 948.00,943.69 L 975.54,943.66 L 1000.84,943.55 L 1023.98,943.33 L 1045.03,942.96 L 1064.08,942.41 L 1081.21,941.63 L 1096.50,940.60 L 1110.04,939.27 L 1121.90,937.62 L 1132.17,935.60 L 1140.93,933.19 L 1148.26,930.34 L 1154.24,927.03 L 1158.95,923.21 L 1162.48,918.84 L 1164.90,913.90 L 1166.31,908.36 L 1166.77,902.16 L 1166.38,895.28 L 1165.21,887.68 L 1163.34,879.33 L 1160.87,870.19 L 1157.86,860.23 L 1154.40,849.40 L 1150.57,837.68 L 1146.45,825.03 L 1142.13,811.42 L 1137.69,796.80 L 1133.20,781.14 L 1128.75,764.41 L 1124.43,746.57 L 1120.31,727.59 L 1116.47,707.42 L 1113.00,686.05 L 1109.98,663.42 L 1107.49,639.50 L 1105.60,614.27 L 1104.41,587.67 L 1104.00,559.69 L 1103.93,553.09 L 1103.73,546.52 L 1103.40,539.95 L 1102.95,533.40 L 1102.39,526.85 L 1101.71,520.32 L 1100.93,513.81 L 1100.04,507.30 L 1099.07,500.80 L 1098.00,494.31 L 1096.84,487.83 L 1095.61,481.35 L 1094.30,474.89 L 1092.93,468.43 L 1091.49,461.98 L 1089.99,455.53 L 1088.44,449.09 L 1086.84,442.66 L 1085.20,436.23 L 1083.52,429.80 L 1081.81,423.38 L 1080.07,416.96 L 1078.31,410.54 L 1076.54,404.12 L 1074.76,397.70 L 1072.97,391.29 L 1071.18,384.87 L 1069.39,378.46 L 1067.62,372.04 L 1065.86,365.62 L 1064.12,359.20 L 1062.41,352.78 L 1060.74,346.35 L 1059.09,339.92 L 1057.49,333.48 L 1055.94,327.04 L 1054.45,320.60 L 1053.01,314.15 L 1051.63,307.69 L 1548.00,127.69 Q 1548.00,415.69 1836.00,415.69 Z"/>
    </clipPath>
  </defs>
  <path d="M 1908.00,415.69 L 1908.00,1807.69 M 1836.00,1879.69 L 1452.00,1879.69 M 1380.00,1879.69 L 1044.00,1879.69 M 972.94,1819.25 L 876.94,1229.41 M 876.00,1121.84 L 876.00,943.69 M 948.07,1015.69 L 975.73,1015.66 M 975.73,1015.66 L 1001.33,1015.55 M 1001.33,1015.55 L 1024.94,1015.33 M 1024.94,1015.33 L 1046.69,1014.94 M 1046.69,1014.94 L 1066.73,1014.36 M 1066.73,1014.36 L 1085.22,1013.52 M 1085.22,1013.52 L 1102.37,1012.36 M 1102.37,1012.36 L 1118.42,1010.78 M 1118.42,1010.78 L 1133.67,1008.65 M 1133.67,1008.65 L 1148.49,1005.73 M 1148.49,1005.73 L 1163.31,1001.62 M 1163.31,1001.62 L 1178.52,995.68 M 1178.52,995.68 L 1194.21,986.91 M 1194.21,986.91 L 1209.68,974.30 M 1209.68,974.30 L 1223.11,957.67 M 1223.11,957.67 L 1097.27,889.21 M 1097.27,889.21 L 1095.20,897.04 M 1095.20,897.04 L 1094.77,901.77 M 1094.77,901.77 L 1094.80,903.01 M 1094.80,903.01 L 1094.48,901.15 M 1094.48,901.15 L 1093.47,896.69 M 1093.47,896.69 L 1091.67,890.07 M 1091.67,890.07 L 1089.11,881.63 M 1089.11,881.63 L 1085.89,871.55 M 1085.89,871.55 L 1082.11,860.00 M 1082.11,860.00 L 1077.90,847.05 M 1077.90,847.05 L 1073.37,832.76 M 1073.37,832.76 L 1068.63,817.17 M 1068.63,817.17 L 1063.79,800.28 M 1063.79,800.28 L 1058.97,782.12 M 1058.97,782.12 L 1054.25,762.67 M 1054.25,762.67 L 1049.75,741.93 M 1049.75,741.93 L 1045.56,719.90 M 1045.56,719.90 L 1041.77,696.56 M 1041.77,696.56 L 1038.48,671.89 M 1038.48,671.89 L 1035.77,645.89 M 1035.77,645.89 L 1033.73,618.53 M 1033.73,618.53 L 1032.45,589.79 M 1032.45,589.79 L 1032.01,560.75 M 1032.00,560.43 L 1031.95,554.56 M 1031.95,554.56 L 1031.79,549.40 M 1031.79,549.40 L 1031.53,544.21 M 1031.53,544.21 L 1031.17,538.96 M 1031.17,538.96 L 1030.71,533.67 M 1030.71,533.67 L 1030.16,528.33 M 1030.16,528.33 L 1029.51,522.94 M 1029.51,522.94 L 1028.77,517.50 M 1028.77,517.50 L 1027.94,512.01 M 1027.94,512.01 L 1027.03,506.47 M 1027.03,506.47 L 1026.03,500.88 M 1026.03,500.88 L 1024.96,495.23 M 1024.96,495.23 L 1023.81,489.53 M 1023.81,489.53 L 1022.58,483.78 M 1022.58,483.78 L 1021.28,477.97 M 1021.28,477.97 L 1019.92,472.12 M 1019.92,472.12 L 1018.50,466.20 M 1018.50,466.20 L 1017.02,460.24 M 1017.02,460.24 L 1015.48,454.23 M 1015.48,454.23 L 1013.90,448.16 M 1013.90,448.16 L 1012.27,442.04 M 1012.27,442.04 L 1010.60,435.86 M 1010.60,435.86 L 1008.89,429.64 M 1008.89,429.64 L 1007.16,423.36 M 1007.16,423.36 L 1005.39,417.02 M 1005.39,417.02 L 1003.61,410.63 M 1003.61,410.63 L 1001.82,404.19 M 1001.82,404.19 L 1000.01,397.69 M 1000.01,397.69 L 998.20,391.14 M 998.20,391.14 L 996.39,384.53 M 996.39,384.53 L 994.58,377.86 M 994.58,377.86 L 992.79,371.13 M 992.79,371.13 L 991.02,364.35 M 991.02,364.35 L 989.27,357.50 M 989.27,357.50 L 987.56,350.59 M 987.56,350.59 L 985.88,343.62 M 985.88,343.62 L 984.24,336.59 M 984.24,336.59 L 982.66,329.49 M 982.66,329.49 L 981.21,322.69 M 1027.08,240.00 L 1523.45,60.00 M 1585.29,66.09 L 1589.55,107.54 M 1589.55,107.54 L 1597.12,146.53 M 1597.12,146.53 L 1607.92,183.09 M 1607.92,183.09 L 1621.82,217.24 M 1621.82,217.24 L 1638.64,248.94 M 1638.64,248.94 L 1658.20,278.05 M 1658.20,278.05 L 1680.32,304.38 M 1680.32,304.38 L 1704.92,327.71 M 1704.92,327.71 L 1731.95,347.84 M 1731.95,347.84 L 1761.46,364.62 M 1761.46,364.62 L 1793.50,377.96 M 1793.50,377.96 L 1828.15,387.83 M 1828.15,387.83 L 1865.50,394.23 M 1865.50,394.23 L 1905.59,397.21" fill="none" stroke="#aa5522"        stroke-width="0.75" stroke-dasharray="2 2" opacity="0.5"/>
  <path d="M 1836.00,415.69 L 1836.00,1807.69 L 1452.00,1807.69 L 1416.00,1169.84 L 1380.00,1807.69 L 1044.00,1807.69 L 948.00,1217.84 L 1368.00,1073.84 L 948.00,1121.84 L 948.00,943.69 L 975.54,943.66 L 1000.84,943.55 L 1023.98,943.33 L 1045.03,942.96 L 1064.08,942.41 L 1081.21,941.63 L 1096.50,940.60 L 1110.04,939.27 L 1121.90,937.62 L 1132.17,935.60 L 1140.93,933.19 L 1148.26,930.34 L 1154.24,927.03 L 1158.95,923.21 L 1162.48,918.84 L 1164.90,913.90 L 1166.31,908.36 L 1166.77,902.16 L 1166.38,895.28 L 1165.21,887.68 L 1163.34,879.33 L 1160.87,870.19 L 1157.86,860.23 L 1154.40,849.40 L 1150.57,837.68 L 1146.45,825.03 L 1142.13,811.42 L 1137.69,796.80 L 1133.20,781.14 L 1128.75,764.41 L 1124.43,746.57 L 1120.31,727.59 L 1116.47,707.42 L 1113.00,686.05 L 1109.98,663.42 L 1107.49,639.50 L 1105.60,614.27 L 1104.41,587.67 L 1104.00,559.69 L 1103.93,553.09 L 1103.73,546.52 L 1103.40,539.95 L 1102.95,533.40 L 1102.39,526.85 L 1101.71,520.32 L 1100.93,513.81 L 1100.04,507.30 L 1099.07,500.80 L 1098.00,494.31 L 1096.84,487.83 L 1095.61,481.35 L 1094.30,474.89 L 1092.93,468.43 L 1091.49,461.98 L 1089.99,455.53 L 1088.44,449.09 L 1086.84,442.66 L 1085.20,436.23 L 1083.52,429.80 L 1081.81,423.38 L 1080.07,416.96 L 1078.31,410.54 L 1076.54,404.12 L 1074.76,397.70 L 1072.97,391.29 L 1071.18,384.87 L 1069.39,378.46 L 1067.62,372.04 L 1065.86,365.62 L 1064.12,359.20 L 1062.41,352.78 L 1060.74,346.35 L 1059.09,339.92 L 1057.49,333.48 L 1055.94,327.04 L 1054.45,320.60 L 1053.01,314.15 L 1051.63,307.69 L 1548.00,127.69 Q 1548.00,415.69 1836.00,415.69 Z" fill="#fdeede" stroke="none" opacity="0.85"/>
  <g clip-path="url(#bodice-clip)">
    <line x1="948.0" y1="175.7" x2="948.0" y2="1807.7"          stroke="#aaa" stroke-width="0.75" stroke-dasharray="4 3"/>
    <line x1="60.0" y1="559.7" x2="1836.0" y2="559.7"          stroke="#aaa" stroke-width="0.75" stroke-dasharray="4 3"/>
    <line x1="60.0" y1="943.7" x2="1836.0" y2="943.7"          stroke="#aaa" stroke-width="0.75" stroke-dasharray="4 3"/>
    <line x1="60.0" y1="1701.8" x2="804.0" y2="1701.8"          stroke="#aaa" stroke-width="0.75" stroke-dasharray="4 3"/>
  </g>
  <g>
    <line x1="948.0" y1="1121.8" x2="948.0" y2="1169.8"          stroke="#bbb" stroke-width="0.75" stroke-dasharray="4 3"/>
    <line x1="948.0" y1="1169.8" x2="948.0" y2="1217.8"          stroke="#bbb" stroke-width="0.75" stroke-dasharray="4 3"/>
    <line x1="948.0" y1="1169.8" x2="1368.0" y2="1073.8"          stroke="#bbb" stroke-width="0.75" stroke-dasharray="4 3"/>
    <line x1="1380.0" y1="1807.7" x2="1452.0" y2="1807.7"          stroke="#bbb" stroke-width="0.75" stroke-dasharray="4 3"/>
    <line x1="1416.0" y1="1169.8" x2="1416.0" y2="1807.7"          stroke="#bbb" stroke-width="0.75" stroke-dasharray="4 3"/>
  </g>
  <path d="M 1836.00,415.69 L 1836.00,1807.69 M 1836.00,1807.69 L 1452.00,1807.69 M 1380.00,1807.69 L 1044.00,1807.69 M 1044.00,1807.69 L 948.00,1217.84 M 948.00,1121.84 L 948.00,943.69 M 948.00,943.69 L 975.54,943.66 L 1000.84,943.55 L 1023.98,943.33 L 1045.03,942.96 L 1064.08,942.41 L 1081.21,941.63 L 1096.50,940.60 L 1110.04,939.27 L 1121.90,937.62 L 1132.17,935.60 L 1140.93,933.19 L 1148.26,930.34 L 1154.24,927.03 L 1158.95,923.21 L 1162.48,918.84 L 1164.90,913.90 L 1166.31,908.36 L 1166.77,902.16 L 1166.38,895.28 L 1165.21,887.68 L 1163.34,879.33 L 1160.87,870.19 L 1157.86,860.23 L 1154.40,849.40 L 1150.57,837.68 L 1146.45,825.03 L 1142.13,811.42 L 1137.69,796.80 L 1133.20,781.14 L 1128.75,764.41 L 1124.43,746.57 L 1120.31,727.59 L 1116.47,707.42 L 1113.00,686.05 L 1109.98,663.42 L 1107.49,639.50 L 1105.60,614.27 L 1104.41,587.67 L 1104.00,559.69 M 1104.00,559.69 L 1103.93,553.09 L 1103.73,546.52 L 1103.40,539.95 L 1102.95,533.40 L 1102.39,526.85 L 1101.71,520.32 L 1100.93,513.81 L 1100.04,507.30 L 1099.07,500.80 L 1098.00,494.31 L 1096.84,487.83 L 1095.61,481.35 L 1094.30,474.89 L 1092.93,468.43 L 1091.49,461.98 L 1089.99,455.53 L 1088.44,449.09 L 1086.84,442.66 L 1085.20,436.23 L 1083.52,429.80 L 1081.81,423.38 L 1080.07,416.96 L 1078.31,410.54 L 1076.54,404.12 L 1074.76,397.70 L 1072.97,391.29 L 1071.18,384.87 L 1069.39,378.46 L 1067.62,372.04 L 1065.86,365.62 L 1064.12,359.20 L 1062.41,352.78 L 1060.74,346.35 L 1059.09,339.92 L 1057.49,333.48 L 1055.94,327.04 L 1054.45,320.60 L 1053.01,314.15 L 1051.63,307.69 M 1051.63,307.69 L 1548.00,127.69 M 1548.00,127.69 Q 1548.00,415.69 1836.00,415.69" fill="none" stroke="#aa5522"        stroke-width="1.5" stroke-linejoin="round"/>
  <path d="M 1452.00,1807.69 L 1416.00,1169.84 M 1416.00,1169.84 L 1380.00,1807.69 M 948.00,1217.84 L 1368.00,1073.84 M 1368.00,1073.84 L 948.00,1121.84" fill="none" stroke="#bbb"        stroke-width="1" stroke-linejoin="round"/>
  <g clip-path="url(#bodice-clip)">
    <circle cx="60.0" cy="1807.7" r="3"            fill="white" stroke="#888" stroke-width="1"/>
    <circle cx="1836.0" cy="175.7" r="3"            fill="white" stroke="#888" stroke-width="1"/>
    <circle cx="948.0" cy="175.7" r="3"            fill="white" stroke="#888" stroke-width="1"/>
    <circle cx="948.0" cy="1807.7" r="3"            fill="white" stroke="#888" stroke-width="1"/>
    <circle cx="60.0" cy="559.7" r="3"            fill="white" stroke="#888" stroke-width="1"/>
    <circle cx="1836.0" cy="559.7" r="3"            fill="white" stroke="#888" stroke-width="1"/>
    <circle cx="60.0" cy="943.7" r="3"            fill="white" stroke="#888" stroke-width="1"/>
    <circle cx="1836.0" cy="943.7" r="3"            fill="white" stroke="#888" stroke-width="1"/>
    <circle cx="1299.8" cy="217.7" r="3"            fill="white" stroke="#888" stroke-width="1"/>
    <circle cx="948.0" cy="1169.8" r="3"            fill="white" stroke="#888" stroke-width="1"/>
    <circle cx="804.0" cy="1807.7" r="3"            fill="white" stroke="#888" stroke-width="1"/>
    <circle cx="732.0" cy="271.7" r="3"            fill="white" stroke="#888" stroke-width="1"/>
    <circle cx="1836.0" cy="1807.7" r="2.5" fill="black"/>
    <circle cx="1836.0" cy="415.7" r="2.5" fill="black"/>
    <circle cx="1548.0" cy="127.7" r="2.5" fill="black"/>
    <circle cx="1051.6" cy="307.7" r="2.5" fill="black"/>
    <circle cx="1104.0" cy="559.7" r="2.5" fill="black"/>
    <circle cx="948.0" cy="943.7" r="2.5" fill="black"/>
    <circle cx="1044.0" cy="1807.7" r="2.5" fill="black"/>
    <circle cx="1368.0" cy="1073.8" r="2.5" fill="black"/>
    <circle cx="948.0" cy="1217.8" r="2.5" fill="black"/>
    <circle cx="1416.0" cy="1169.8" r="2.5" fill="black"/>
    <circle cx="948.0" cy="1121.8" r="2.5" fill="black"/>
    <circle cx="1380.0" cy="1807.7" r="2.5" fill="black"/>
    <circle cx="1452.0" cy="1807.7" r="2.5" fill="black"/>
    <circle cx="1416.0" cy="1073.8" r="2.5" fill="black"/>
  </g>
  <text x="1821.9" y="1793.5"        font-family="monospace" font-size="11"        fill="#222" font-weight="bold"        text-anchor="middle" dominant-baseline="middle">D</text>
  <text x="1821.9" y="429.8"        font-family="monospace" font-size="11"        fill="#222" font-weight="bold"        text-anchor="middle" dominant-baseline="middle">M</text>
  <text x="1536.5" y="144.1"        font-family="monospace" font-size="11"        fill="#222" font-weight="bold"        text-anchor="middle" dominant-baseline="middle">K</text>
  <text x="1069.2" y="317.3"        font-family="monospace" font-size="11"        fill="#222" font-weight="bold"        text-anchor="middle" dominant-baseline="middle">N</text>
  <text x="1124.0" y="558.7"        font-family="monospace" font-size="11"        fill="#222" font-weight="bold"        text-anchor="middle" dominant-baseline="middle">P</text>
  <text x="947.3" y="923.7"        font-family="monospace" font-size="11"        fill="#222" font-weight="bold"        text-anchor="middle" dominant-baseline="middle">O</text>
  <text x="1057.0" y="1792.5"        font-family="monospace" font-size="11"        fill="#222" font-weight="bold"        text-anchor="middle" dominant-baseline="middle">Q</text>
  <text x="1379.2" y="1057.3"        font-family="monospace" font-size="11"        fill="#222" font-weight="bold"        text-anchor="middle" dominant-baseline="middle">T</text>
  <text x="942.5" y="1198.6"        font-family="monospace" font-size="11"        fill="#222" font-weight="bold"        text-anchor="middle" dominant-baseline="middle">V</text>
  <text x="1416.0" y="1149.8"        font-family="monospace" font-size="11"        fill="#222" font-weight="bold"        text-anchor="middle" dominant-baseline="middle">W</text>
  <text x="961.3" y="1106.9"        font-family="monospace" font-size="11"        fill="#222" font-weight="bold"        text-anchor="middle" dominant-baseline="middle">UU</text>
  <text x="1366.3" y="1793.2"        font-family="monospace" font-size="11"        fill="#222" font-weight="bold"        text-anchor="middle" dominant-baseline="middle">VV</text>
  <text x="1465.7" y="1793.2"        font-family="monospace" font-size="11"        fill="#222" font-weight="bold"        text-anchor="middle" dominant-baseline="middle">WW</text>
  <text x="1411.0" y="1054.5"        font-family="monospace" font-size="11"        fill="#222" font-weight="bold"        text-anchor="middle" dominant-baseline="middle">S</text>
</svg>