<?xml version="1.0" encoding="UTF-8"?>
<svg xmlns="http://www.w3.org/2000/svg"
     width="1896" height="1800"
     viewBox="0 0 1896 1800">
  <rect width="100%" height="100%" fill="white"/>
  <path d="M 60.00,1740.00 L 60.00,108.00 L 65.10,108.04 L 70.12,108.15 L 75.07,108.32 L 79.94,108.57 L 84.75,108.87 L 89.48,109.24 L 94.15,109.65 L 98.74,110.12 L 103.27,110.64 L 107.73,111.20 L 112.12,111.80 L 116.45,112.44 L 120.71,113.12 L 124.91,113.82 L 129.05,114.56 L 133.12,115.31 L 137.13,116.09 L 141.08,116.88 L 144.97,117.69 L 148.81,118.50 L 152.58,119.33 L 156.29,120.15 L 159.95,120.98 L 163.56,121.80 L 167.11,122.61 L 170.60,123.42 L 174.04,124.21 L 177.43,124.98 L 180.77,125.73 L 184.05,126.45 L 187.29,127.15 L 190.48,127.82 L 193.61,128.45 L 196.71,129.04 L 199.75,129.59 L 202.75,130.10 L 205.70,130.56 L 208.61,130.96 L 211.48,131.31 L 214.30,131.60 L 217.08,131.83 L 219.82,131.99 L 222.52,132.08 L 225.18,132.10 L 227.80,132.04 L 230.39,131.91 L 232.94,131.69 L 235.45,131.38 L 237.93,130.98 L 240.37,130.49 L 242.78,129.90 L 245.16,129.21 L 247.50,128.42 L 249.81,127.52 L 252.10,126.51 L 254.35,125.39 L 256.58,124.14 L 258.78,122.78 L 260.95,121.29 L 263.09,119.67 L 265.21,117.92 L 267.31,116.04 L 269.38,114.02 L 271.43,111.85 L 273.46,109.54 L 275.46,107.08 L 277.45,104.47 L 279.41,101.71 L 281.36,98.78 L 283.29,95.69 L 285.21,92.44 L 287.10,89.01 L 288.98,85.41 L 290.85,81.64 L 292.71,77.68 L 294.55,73.55 L 296.38,69.22 L 298.19,64.71 L 300.00,60.00 L 749.44,228.54 L 684.00,492.00 L 681.83,501.31 L 680.02,510.27 L 678.57,518.88 L 677.47,527.17 L 676.70,535.14 L 676.27,542.79 L 676.15,550.14 L 676.35,557.19 L 676.85,563.96 L 677.65,570.45 L 678.73,576.68 L 680.09,582.65 L 681.72,588.37 L 683.61,593.85 L 685.75,599.10 L 688.13,604.13 L 690.74,608.95 L 693.59,613.57 L 696.65,617.99 L 699.91,622.23 L 703.38,626.29 L 707.04,630.19 L 710.87,633.92 L 714.89,637.52 L 719.06,640.97 L 723.39,644.29 L 727.87,647.50 L 732.49,650.59 L 737.24,653.58 L 742.11,656.48 L 747.09,659.30 L 752.17,662.04 L 757.35,664.71 L 762.62,667.33 L 767.96,669.91 L 773.37,672.44 L 778.85,674.95 L 784.37,677.44 L 789.94,679.92 L 795.54,682.39 L 801.17,684.88 L 806.81,687.38 L 812.46,689.91 L 818.11,692.47 L 823.75,695.08 L 829.38,697.75 L 834.98,700.47 L 840.54,703.27 L 846.05,706.15 L 851.52,709.13 L 856.92,712.20 L 862.26,715.38 L 867.51,718.68 L 872.68,722.10 L 877.75,725.67 L 882.72,729.38 L 887.57,733.24 L 892.30,737.27 L 896.90,741.47 L 901.36,745.85 L 905.67,750.43 L 909.82,755.20 L 913.81,760.19 L 917.63,765.39 L 921.26,770.83 L 924.70,776.50 L 927.93,782.42 L 930.96,788.59 L 933.78,795.03 L 936.36,801.74 L 938.71,808.74 L 940.82,816.02 L 942.67,823.61 L 944.26,831.51 L 945.59,839.73 L 946.63,848.28 L 947.38,857.17 L 947.84,866.41 L 948.00,876.00 L 756.00,1630.19 L 756.00,1740.00 L 408.00,1740.00 L 336.00,876.00 L 264.00,1740.00 L 60.00,1740.00 Z"
        fill="#dce8f5" stroke="#2255aa" stroke-width="1.5"
        stroke-linejoin="round" opacity="0.85"/>
  <path d="M 1836.00,348.00 L 1836.00,1740.00 L 1548.00,1740.00 L 1476.00,1101.00 L 1404.00,1740.00 L 1092.00,1740.00 L 948.00,1149.00 L 1428.00,1005.00 L 948.00,1053.00 L 948.00,876.00 L 948.20,865.82 L 948.79,856.03 L 949.75,846.62 L 951.08,837.58 L 952.77,828.90 L 954.80,820.56 L 957.17,812.57 L 959.85,804.91 L 962.84,797.56 L 966.13,790.53 L 969.71,783.80 L 973.57,777.36 L 977.68,771.20 L 982.05,765.31 L 986.66,759.68 L 991.50,754.30 L 996.56,749.16 L 1001.82,744.26 L 1007.28,739.58 L 1012.92,735.10 L 1018.74,730.84 L 1024.71,726.76 L 1030.84,722.86 L 1037.10,719.14 L 1043.49,715.58 L 1050.00,712.17 L 1056.61,708.91 L 1063.31,705.78 L 1070.09,702.77 L 1076.94,699.88 L 1083.85,697.09 L 1090.81,694.39 L 1097.80,691.78 L 1104.82,689.24 L 1111.85,686.76 L 1118.88,684.34 L 1125.89,681.97 L 1132.89,679.62 L 1139.86,677.31 L 1146.77,675.01 L 1153.64,672.71 L 1160.43,670.41 L 1167.15,668.09 L 1173.78,665.75 L 1180.30,663.38 L 1186.71,660.96 L 1193.00,658.49 L 1199.15,655.95 L 1205.15,653.34 L 1210.99,650.65 L 1216.67,647.86 L 1222.16,644.97 L 1227.46,641.97 L 1232.55,638.84 L 1237.43,635.59 L 1242.08,632.19 L 1246.49,628.63 L 1250.65,624.92 L 1254.55,621.03 L 1258.18,616.96 L 1261.52,612.70 L 1264.57,608.24 L 1267.31,603.56 L 1269.73,598.67 L 1271.82,593.54 L 1273.56,588.18 L 1274.96,582.56 L 1275.99,576.68 L 1276.64,570.53 L 1276.91,564.10 L 1276.78,557.38 L 1276.24,550.36 L 1275.27,543.03 L 1273.88,535.38 L 1272.04,527.41 L 1269.74,519.09 L 1266.98,510.42 L 1263.73,501.39 L 1260.00,492.00 L 1155.29,240.00 L 1548.00,60.00 L 1548.06,66.03 L 1548.25,72.02 L 1548.55,77.99 L 1548.98,83.92 L 1549.52,89.81 L 1550.19,95.68 L 1550.97,101.50 L 1551.86,107.29 L 1552.87,113.04 L 1554.00,118.75 L 1555.23,124.42 L 1556.58,130.05 L 1558.03,135.64 L 1559.60,141.18 L 1561.27,146.67 L 1563.05,152.12 L 1564.93,157.52 L 1566.91,162.87 L 1569.00,168.16 L 1571.19,173.41 L 1573.48,178.61 L 1575.86,183.74 L 1578.35,188.83 L 1580.93,193.86 L 1583.61,198.83 L 1586.38,203.74 L 1589.24,208.59 L 1592.19,213.38 L 1595.24,218.10 L 1598.37,222.77 L 1601.59,227.36 L 1604.90,231.90 L 1608.29,236.36 L 1611.77,240.75 L 1615.33,245.08 L 1618.97,249.33 L 1622.70,253.52 L 1626.50,257.63 L 1630.38,261.66 L 1634.34,265.62 L 1638.37,269.50 L 1642.48,273.30 L 1646.67,277.03 L 1650.92,280.67 L 1655.25,284.23 L 1659.64,287.71 L 1664.10,291.10 L 1668.64,294.41 L 1673.23,297.63 L 1677.90,300.76 L 1682.62,303.81 L 1687.41,306.76 L 1692.26,309.62 L 1697.17,312.39 L 1702.14,315.07 L 1707.17,317.65 L 1712.26,320.14 L 1717.39,322.52 L 1722.59,324.81 L 1727.84,327.00 L 1733.13,329.09 L 1738.48,331.07 L 1743.88,332.95 L 1749.33,334.73 L 1754.82,336.40 L 1760.36,337.97 L 1765.95,339.42 L 1771.58,340.77 L 1777.25,342.00 L 1782.96,343.13 L 1788.71,344.14 L 1794.50,345.03 L 1800.32,345.81 L 1806.19,346.48 L 1812.08,347.02 L 1818.01,347.45 L 1823.98,347.75 L 1829.97,347.94 L 1836.00,348.00 Z"
        fill="#fdeede" stroke="#aa5522" stroke-width="1.5"
        stroke-linejoin="round" opacity="0.85"/>
  <circle cx="60.0" cy="1740.0" r="2.5"
          fill="black"/>
  <text x="64.0" y="1736.0"
        font-family="monospace" font-size="9" fill="#333">B</text>
  <circle cx="60.0" cy="108.0" r="2.5"
          fill="black"/>
  <text x="64.0" y="104.0"
        font-family="monospace" font-size="9" fill="#333">A</text>
  <circle cx="1836.0" cy="1740.0" r="2.5"
          fill="black"/>
  <text x="1840.0" y="1736.0"
        font-family="monospace" font-size="9" fill="#333">D</text>
  <circle cx="1836.0" cy="348.0" r="2.5"
          fill="black"/>
  <text x="1840.0" y="344.0"
        font-family="monospace" font-size="9" fill="#333">M</text>
  <circle cx="1548.0" cy="60.0" r="2.5"
          fill="black"/>
  <text x="1552.0" y="56.0"
        font-family="monospace" font-size="9" fill="#333">K</text>
  <circle cx="1155.3" cy="240.0" r="2.5"
          fill="black"/>
  <text x="1159.3" y="236.0"
        font-family="monospace" font-size="9" fill="#333">N</text>
  <circle cx="1260.0" cy="492.0" r="2.5"
          fill="black"/>
  <text x="1264.0" y="488.0"
        font-family="monospace" font-size="9" fill="#333">P</text>
  <circle cx="948.0" cy="876.0" r="2.5"
          fill="black"/>
  <text x="952.0" y="872.0"
        font-family="monospace" font-size="9" fill="#333">O</text>
  <circle cx="1092.0" cy="1740.0" r="2.5"
          fill="black"/>
  <text x="1096.0" y="1736.0"
        font-family="monospace" font-size="9" fill="#333">Q</text>
  <circle cx="1476.0" cy="1005.0" r="2.5"
          fill="black"/>
  <text x="1480.0" y="1001.0"
        font-family="monospace" font-size="9" fill="#333">S</text>
  <circle cx="1428.0" cy="1005.0" r="2.5"
          fill="black"/>
  <text x="1432.0" y="1001.0"
        font-family="monospace" font-size="9" fill="#333">T</text>
  <circle cx="948.0" cy="1149.0" r="2.5"
          fill="black"/>
  <text x="952.0" y="1145.0"
        font-family="monospace" font-size="9" fill="#333">V</text>
  <circle cx="1476.0" cy="1101.0" r="2.5"
          fill="black"/>
  <text x="1480.0" y="1097.0"
        font-family="monospace" font-size="9" fill="#333">W</text>
  <circle cx="948.0" cy="1053.0" r="2.5"
          fill="black"/>
  <text x="952.0" y="1049.0"
        font-family="monospace" font-size="9" fill="#333">E</text>
  <circle cx="1404.0" cy="1740.0" r="2.5"
          fill="black"/>
  <text x="1408.0" y="1736.0"
        font-family="monospace" font-size="9" fill="#333">F</text>
  <circle cx="1548.0" cy="1740.0" r="2.5"
          fill="black"/>
  <text x="1552.0" y="1736.0"
        font-family="monospace" font-size="9" fill="#333">G</text>
  <circle cx="300.0" cy="60.0" r="2.5"
          fill="black"/>
  <text x="304.0" y="56.0"
        font-family="monospace" font-size="9" fill="#333">AA</text>
  <circle cx="684.0" cy="492.0" r="2.5"
          fill="black"/>
  <text x="688.0" y="488.0"
        font-family="monospace" font-size="9" fill="#333">BB</text>
  <circle cx="749.4" cy="228.5" r="2.5"
          fill="black"/>
  <text x="753.4" y="224.5"
        font-family="monospace" font-size="9" fill="#333">DD</text>
  <circle cx="756.0" cy="1740.0" r="2.5"
          fill="black"/>
  <text x="760.0" y="1736.0"
        font-family="monospace" font-size="9" fill="#333">EE</text>
  <circle cx="756.0" cy="1630.2" r="2.5"
          fill="black"/>
  <text x="760.0" y="1626.2"
        font-family="monospace" font-size="9" fill="#333">FF</text>
  <circle cx="264.0" cy="1740.0" r="2.5"
          fill="black"/>
  <text x="268.0" y="1736.0"
        font-family="monospace" font-size="9" fill="#333">H</text>
  <circle cx="408.0" cy="1740.0" r="2.5"
          fill="black"/>
  <text x="412.0" y="1736.0"
        font-family="monospace" font-size="9" fill="#333">I</text>
  <circle cx="336.0" cy="876.0" r="2.5"
          fill="black"/>
  <text x="340.0" y="872.0"
        font-family="monospace" font-size="9" fill="#333">J</text>
</svg>