<?xml version="1.0" encoding="UTF-8"?>
<svg xmlns="http://www.w3.org/2000/svg"
     width="6000" height="5700"
     viewBox="0 0 6000 5700">
  <rect width="100%" height="100%" fill="white"/>
  <defs>
    <style>@import url('https://fonts.googleapis.com/css2?family=Martian+Mono:wght@400;700&display=swap');</style>
    <clipPath id="bodice-clip">
      <path d="M 300.00,5202.08 L 300.00,445.22 Q 993.75,445.22 1050.00,295.22 L 2454.49,821.91 L 2449.12,843.00 L 2443.50,864.07 L 2437.65,885.11 L 2431.59,906.12 L 2425.35,927.10 L 2418.94,948.07 L 2412.38,969.02 L 2405.71,989.96 L 2398.93,1010.88 L 2392.06,1031.79 L 2385.14,1052.70 L 2378.17,1073.60 L 2371.18,1094.50 L 2364.19,1115.39 L 2357.23,1136.29 L 2350.30,1157.20 L 2343.44,1178.11 L 2336.66,1199.03 L 2329.98,1219.97 L 2323.43,1240.92 L 2317.02,1261.89 L 2310.77,1282.87 L 2304.72,1303.89 L 2298.87,1324.92 L 2293.24,1345.99 L 2287.87,1367.08 L 2282.76,1388.21 L 2277.95,1409.37 L 2273.44,1430.57 L 2269.27,1451.81 L 2265.44,1473.10 L 2261.99,1494.43 L 2258.94,1515.81 L 2256.29,1537.23 L 2254.08,1558.72 L 2252.33,1580.25 L 2251.05,1601.85 L 2250.27,1623.51 L 2250.00,1645.22 L 2250.41,1713.28 L 2251.66,1778.99 L 2253.76,1842.40 L 2256.73,1903.54 L 2260.60,1962.42 L 2265.40,2019.10 L 2271.13,2073.59 L 2277.82,2125.92 L 2285.49,2176.13 L 2294.16,2224.25 L 2303.85,2270.30 L 2314.59,2314.32 L 2326.39,2356.34 L 2339.27,2396.38 L 2353.27,2434.48 L 2368.38,2470.67 L 2384.65,2504.98 L 2402.08,2537.44 L 2420.71,2568.08 L 2440.54,2596.93 L 2461.60,2624.01 L 2483.92,2649.37 L 2507.50,2673.03 L 2532.39,2695.02 L 2558.58,2715.37 L 2586.11,2734.11 L 2615.00,2751.28 L 2645.26,2766.90 L 2676.92,2781.00 L 2710.00,2793.61 L 2744.52,2804.77 L 2780.50,2814.50 L 2817.96,2822.83 L 2856.92,2829.80 L 2897.41,2835.43 L 2939.44,2839.76 L 2983.03,2842.82 L 3028.21,2844.63 L 3075.00,2845.22 L 2475.00,5202.08 L 1387.50,5202.08 L 1162.50,2845.22 L 937.50,5202.08 L 300.00,5202.08 Z"/>
    </clipPath>
  </defs>
  <path d="M 1102.67,154.78 L 2507.16,681.46" fill="none" stroke="#2255aa"        stroke-width="5" stroke-dasharray="6 6" opacity="0.5"        stroke-linecap="round"/>
  <path d="M 3220.36,2882.23 L 2591.60,5352.08 L 1387.50,5352.08" fill="none" stroke="#2255aa"        stroke-width="5" stroke-dasharray="6 6" opacity="0.5"        stroke-linecap="round"/>
  <path d="M 937.50,5352.08 L 150.00,5352.08 L 150.00,445.22" fill="none" stroke="#2255aa"        stroke-width="5" stroke-dasharray="6 6" opacity="0.5"        stroke-linecap="round"/>
  <path d="M 300.00,5202.08 L 300.00,445.22 Q 993.75,445.22 1050.00,295.22 L 2454.49,821.91 L 2449.12,843.00 L 2443.50,864.07 L 2437.65,885.11 L 2431.59,906.12 L 2425.35,927.10 L 2418.94,948.07 L 2412.38,969.02 L 2405.71,989.96 L 2398.93,1010.88 L 2392.06,1031.79 L 2385.14,1052.70 L 2378.17,1073.60 L 2371.18,1094.50 L 2364.19,1115.39 L 2357.23,1136.29 L 2350.30,1157.20 L 2343.44,1178.11 L 2336.66,1199.03 L 2329.98,1219.97 L 2323.43,1240.92 L 2317.02,1261.89 L 2310.77,1282.87 L 2304.72,1303.89 L 2298.87,1324.92 L 2293.24,1345.99 L 2287.87,1367.08 L 2282.76,1388.21 L 2277.95,1409.37 L 2273.44,1430.57 L 2269.27,1451.81 L 2265.44,1473.10 L 2261.99,1494.43 L 2258.94,1515.81 L 2256.29,1537.23 L 2254.08,1558.72 L 2252.33,1580.25 L 2251.05,1601.85 L 2250.27,1623.51 L 2250.00,1645.22 L 2250.41,1713.28 L 2251.66,1778.99 L 2253.76,1842.40 L 2256.73,1903.54 L 2260.60,1962.42 L 2265.40,2019.10 L 2271.13,2073.59 L 2277.82,2125.92 L 2285.49,2176.13 L 2294.16,2224.25 L 2303.85,2270.30 L 2314.59,2314.32 L 2326.39,2356.34 L 2339.27,2396.38 L 2353.27,2434.48 L 2368.38,2470.67 L 2384.65,2504.98 L 2402.08,2537.44 L 2420.71,2568.08 L 2440.54,2596.93 L 2461.60,2624.01 L 2483.92,2649.37 L 2507.50,2673.03 L 2532.39,2695.02 L 2558.58,2715.37 L 2586.11,2734.11 L 2615.00,2751.28 L 2645.26,2766.90 L 2676.92,2781.00 L 2710.00,2793.61 L 2744.52,2804.77 L 2780.50,2814.50 L 2817.96,2822.83 L 2856.92,2829.80 L 2897.41,2835.43 L 2939.44,2839.76 L 2983.03,2842.82 L 3028.21,2844.63 L 3075.00,2845.22 L 2475.00,5202.08 L 1387.50,5202.08 L 1162.50,2845.22 L 937.50,5202.08 L 300.00,5202.08 Z" fill="#dce8f5" stroke="none" opacity="0.85"/>
  <g clip-path="url(#bodice-clip)">
    <line x1="3075.0" y1="445.2" x2="3075.0" y2="5545.2"          stroke="#aaa" stroke-width="5" stroke-dasharray="12 9"/>
    <line x1="300.0" y1="1645.2" x2="5850.0" y2="1645.2"          stroke="#aaa" stroke-width="5" stroke-dasharray="12 9"/>
    <line x1="300.0" y1="2845.2" x2="5850.0" y2="2845.2"          stroke="#aaa" stroke-width="5" stroke-dasharray="12 9"/>
    <line x1="300.0" y1="5202.1" x2="2475.0" y2="5202.1"          stroke="#aaa" stroke-width="5" stroke-dasharray="12 9"/>
  </g>
  <g>
    <line x1="937.5" y1="5202.1" x2="1387.5" y2="5202.1"          stroke="#bbb" stroke-width="5" stroke-dasharray="12 9"/>
    <line x1="1162.5" y1="2845.2" x2="1162.5" y2="5202.1"          stroke="#bbb" stroke-width="5" stroke-dasharray="12 9"/>
  </g>
  <path d="M 300.00,5202.08 L 300.00,445.22 M 300.00,445.22 Q 993.75,445.22 1050.00,295.22 M 1050.00,295.22 L 2454.49,821.91 M 2454.49,821.91 L 2449.12,843.00 L 2443.50,864.07 L 2437.65,885.11 L 2431.59,906.12 L 2425.35,927.10 L 2418.94,948.07 L 2412.38,969.02 L 2405.71,989.96 L 2398.93,1010.88 L 2392.06,1031.79 L 2385.14,1052.70 L 2378.17,1073.60 L 2371.18,1094.50 L 2364.19,1115.39 L 2357.23,1136.29 L 2350.30,1157.20 L 2343.44,1178.11 L 2336.66,1199.03 L 2329.98,1219.97 L 2323.43,1240.92 L 2317.02,1261.89 L 2310.77,1282.87 L 2304.72,1303.89 L 2298.87,1324.92 L 2293.24,1345.99 L 2287.87,1367.08 L 2282.76,1388.21 L 2277.95,1409.37 L 2273.44,1430.57 L 2269.27,1451.81 L 2265.44,1473.10 L 2261.99,1494.43 L 2258.94,1515.81 L 2256.29,1537.23 L 2254.08,1558.72 L 2252.33,1580.25 L 2251.05,1601.85 L 2250.27,1623.51 L 2250.00,1645.22 M 2250.00,1645.22 L 2250.41,1713.28 L 2251.66,1778.99 L 2253.76,1842.40 L 2256.73,1903.54 L 2260.60,1962.42 L 2265.40,2019.10 L 2271.13,2073.59 L 2277.82,2125.92 L 2285.49,2176.13 L 2294.16,2224.25 L 2303.85,2270.30 L 2314.59,2314.32 L 2326.39,2356.34 L 2339.27,2396.38 L 2353.27,2434.48 L 2368.38,2470.67 L 2384.65,2504.98 L 2402.08,2537.44 L 2420.71,2568.08 L 2440.54,2596.93 L 2461.60,2624.01 L 2483.92,2649.37 L 2507.50,2673.03 L 2532.39,2695.02 L 2558.58,2715.37 L 2586.11,2734.11 L 2615.00,2751.28 L 2645.26,2766.90 L 2676.92,2781.00 L 2710.00,2793.61 L 2744.52,2804.77 L 2780.50,2814.50 L 2817.96,2822.83 L 2856.92,2829.80 L 2897.41,2835.43 L 2939.44,2839.76 L 2983.03,2842.82 L 3028.21,2844.63 L 3075.00,2845.22 M 3075.00,2845.22 L 2475.00,5202.08 M 2475.00,5202.08 L 1387.50,5202.08 M 937.50,5202.08 L 300.00,5202.08" fill="none" stroke="#2255aa"        stroke-width="5" stroke-linejoin="round"/>
  <path d="M 1387.50,5202.08 L 1162.50,2845.22 M 1162.50,2845.22 L 937.50,5202.08" fill="none" stroke="#bbb"        stroke-width="3" stroke-linejoin="round"/>
  <g clip-path="url(#bodice-clip)">
    <circle cx="300.0" cy="5545.2" r="9"            fill="white" stroke="#888" stroke-width="3"/>
    <circle cx="5850.0" cy="445.2" r="9"            fill="white" stroke="#888" stroke-width="3"/>
    <circle cx="3075.0" cy="445.2" r="9"            fill="white" stroke="#888" stroke-width="3"/>
    <circle cx="3075.0" cy="5545.2" r="9"            fill="white" stroke="#888" stroke-width="3"/>
    <circle cx="300.0" cy="1645.2" r="9"            fill="white" stroke="#888" stroke-width="3"/>
    <circle cx="5850.0" cy="1645.2" r="9"            fill="white" stroke="#888" stroke-width="3"/>
    <circle cx="300.0" cy="2845.2" r="9"            fill="white" stroke="#888" stroke-width="3"/>
    <circle cx="5850.0" cy="2845.2" r="9"            fill="white" stroke="#888" stroke-width="3"/>
    <circle cx="4336.4" cy="576.5" r="9"            fill="white" stroke="#888" stroke-width="3"/>
    <circle cx="3075.0" cy="3548.4" r="9"            fill="white" stroke="#888" stroke-width="3"/>
    <circle cx="2475.0" cy="5545.2" r="9"            fill="white" stroke="#888" stroke-width="3"/>
    <circle cx="2250.0" cy="745.2" r="9"            fill="white" stroke="#888" stroke-width="3"/>
    <circle cx="300.0" cy="445.2" r="8" fill="black"/>
  <text x="369.4" y="497.7"        font-family="'Martian Mono', monospace" font-size="34"        fill="#222" font-weight="bold"        text-anchor="middle" dominant-baseline="middle">A</text>
    <circle cx="300.0" cy="5202.1" r="8" fill="black"/>
  <text x="343.9" y="5127.0"        font-family="'Martian Mono', monospace" font-size="34"        fill="#222" font-weight="bold"        text-anchor="middle" dominant-baseline="middle">GG</text>
    <circle cx="1050.0" cy="295.2" r="8" fill="black"/>
  <text x="1095.1" y="369.6"        font-family="'Martian Mono', monospace" font-size="34"        fill="#222" font-weight="bold"        text-anchor="middle" dominant-baseline="middle">AA</text>
    <circle cx="2454.5" cy="821.9" r="8" fill="black"/>
  <text x="2387.4" y="877.3"        font-family="'Martian Mono', monospace" font-size="34"        fill="#222" font-weight="bold"        text-anchor="middle" dominant-baseline="middle">DD</text>
    <circle cx="2250.0" cy="1645.2" r="8" fill="black"/>
  <text x="2167.0" y="1619.1"        font-family="'Martian Mono', monospace" font-size="34"        fill="#222" font-weight="bold"        text-anchor="middle" dominant-baseline="middle">BB</text>
    <circle cx="3075.0" cy="2845.2" r="8" fill="black"/>
  <text x="2994.2" y="2813.1"        font-family="'Martian Mono', monospace" font-size="34"        fill="#222" font-weight="bold"        text-anchor="middle" dominant-baseline="middle">O</text>
    <circle cx="2475.0" cy="5202.1" r="8" fill="black"/>
  <text x="2446.3" y="5120.0"        font-family="'Martian Mono', monospace" font-size="34"        fill="#222" font-weight="bold"        text-anchor="middle" dominant-baseline="middle">FF</text>
    <circle cx="937.5" cy="5202.1" r="8" fill="black"/>
  <text x="929.6" y="5115.4"        font-family="'Martian Mono', monospace" font-size="34"        fill="#222" font-weight="bold"        text-anchor="middle" dominant-baseline="middle">XX</text>
    <circle cx="1387.5" cy="5202.1" r="8" fill="black"/>
  <text x="1416.2" y="5119.9"        font-family="'Martian Mono', monospace" font-size="34"        fill="#222" font-weight="bold"        text-anchor="middle" dominant-baseline="middle">YY</text>
    <circle cx="1162.5" cy="2845.2" r="8" fill="black"/>
  <text x="1188.2" y="2762.1"        font-family="'Martian Mono', monospace" font-size="34"        fill="#222" font-weight="bold"        text-anchor="middle" dominant-baseline="middle">ZZ</text>
  </g>
</svg>