<?xml version="1.0" encoding="UTF-8"?>
<svg xmlns="http://www.w3.org/2000/svg"
     width="1008" height="1800"
     viewBox="0 0 1008 1800">
  <rect width="100%" height="100%" fill="white"/>
  <path d="M 948.00,348.00 L 948.00,1740.00 L 660.00,1740.00 L 588.00,1101.00 L 516.00,1740.00 L 204.00,1740.00 L 60.00,1149.00 L 540.00,1005.00 L 60.00,1053.00 L 60.00,876.00 L 60.20,865.82 L 60.79,856.03 L 61.75,846.62 L 63.08,837.58 L 64.77,828.90 L 66.80,820.56 L 69.17,812.57 L 71.85,804.91 L 74.84,797.56 L 78.13,790.53 L 81.71,783.80 L 85.57,777.36 L 89.68,771.20 L 94.05,765.31 L 98.66,759.68 L 103.50,754.30 L 108.56,749.16 L 113.82,744.26 L 119.28,739.58 L 124.92,735.10 L 130.74,730.84 L 136.71,726.76 L 142.84,722.86 L 149.10,719.14 L 155.49,715.58 L 162.00,712.17 L 168.61,708.91 L 175.31,705.78 L 182.09,702.77 L 188.94,699.88 L 195.85,697.09 L 202.81,694.39 L 209.80,691.78 L 216.82,689.24 L 223.85,686.76 L 230.88,684.34 L 237.89,681.97 L 244.89,679.62 L 251.86,677.31 L 258.77,675.01 L 265.64,672.71 L 272.43,670.41 L 279.15,668.09 L 285.78,665.75 L 292.30,663.38 L 298.71,660.96 L 305.00,658.49 L 311.15,655.95 L 317.15,653.34 L 322.99,650.65 L 328.67,647.86 L 334.16,644.97 L 339.46,641.97 L 344.55,638.84 L 349.43,635.59 L 354.08,632.19 L 358.49,628.63 L 362.65,624.92 L 366.55,621.03 L 370.18,616.96 L 373.52,612.70 L 376.57,608.24 L 379.31,603.56 L 381.73,598.67 L 383.82,593.54 L 385.56,588.18 L 386.96,582.56 L 387.99,576.68 L 388.64,570.53 L 388.91,564.10 L 388.78,557.38 L 388.24,550.36 L 387.27,543.03 L 385.88,535.38 L 384.04,527.41 L 381.74,519.09 L 378.98,510.42 L 375.73,501.39 L 372.00,492.00 L 267.29,240.00 L 660.00,60.00 L 660.06,66.03 L 660.25,72.02 L 660.55,77.99 L 660.98,83.92 L 661.52,89.81 L 662.19,95.68 L 662.97,101.50 L 663.86,107.29 L 664.87,113.04 L 666.00,118.75 L 667.23,124.42 L 668.58,130.05 L 670.03,135.64 L 671.60,141.18 L 673.27,146.67 L 675.05,152.12 L 676.93,157.52 L 678.91,162.87 L 681.00,168.16 L 683.19,173.41 L 685.48,178.61 L 687.86,183.74 L 690.35,188.83 L 692.93,193.86 L 695.61,198.83 L 698.38,203.74 L 701.24,208.59 L 704.19,213.38 L 707.24,218.10 L 710.37,222.77 L 713.59,227.36 L 716.90,231.90 L 720.29,236.36 L 723.77,240.75 L 727.33,245.08 L 730.97,249.33 L 734.70,253.52 L 738.50,257.63 L 742.38,261.66 L 746.34,265.62 L 750.37,269.50 L 754.48,273.30 L 758.67,277.03 L 762.92,280.67 L 767.25,284.23 L 771.64,287.71 L 776.10,291.10 L 780.64,294.41 L 785.23,297.63 L 789.90,300.76 L 794.62,303.81 L 799.41,306.76 L 804.26,309.62 L 809.17,312.39 L 814.14,315.07 L 819.17,317.65 L 824.26,320.14 L 829.39,322.52 L 834.59,324.81 L 839.84,327.00 L 845.13,329.09 L 850.48,331.07 L 855.88,332.95 L 861.33,334.73 L 866.82,336.40 L 872.36,337.97 L 877.95,339.42 L 883.58,340.77 L 889.25,342.00 L 894.96,343.13 L 900.71,344.14 L 906.50,345.03 L 912.32,345.81 L 918.19,346.48 L 924.08,347.02 L 930.01,347.45 L 935.98,347.75 L 941.97,347.94 L 948.00,348.00 Z"
        fill="#fdeede" stroke="#aa5522" stroke-width="1.5"
        stroke-linejoin="round" opacity="0.85"/>
  <circle cx="948.0" cy="1740.0" r="2.5" fill="black"/>
  <text x="952.0" y="1736.0"
        font-family="monospace" font-size="9" fill="#333">D</text>
  <circle cx="948.0" cy="348.0" r="2.5" fill="black"/>
  <text x="952.0" y="344.0"
        font-family="monospace" font-size="9" fill="#333">M</text>
  <circle cx="660.0" cy="60.0" r="2.5" fill="black"/>
  <text x="664.0" y="56.0"
        font-family="monospace" font-size="9" fill="#333">K</text>
  <circle cx="267.3" cy="240.0" r="2.5" fill="black"/>
  <text x="271.3" y="236.0"
        font-family="monospace" font-size="9" fill="#333">N</text>
  <circle cx="372.0" cy="492.0" r="2.5" fill="black"/>
  <text x="376.0" y="488.0"
        font-family="monospace" font-size="9" fill="#333">P</text>
  <circle cx="60.0" cy="876.0" r="2.5" fill="black"/>
  <text x="64.0" y="872.0"
        font-family="monospace" font-size="9" fill="#333">O</text>
  <circle cx="204.0" cy="1740.0" r="2.5" fill="black"/>
  <text x="208.0" y="1736.0"
        font-family="monospace" font-size="9" fill="#333">Q</text>
  <circle cx="588.0" cy="1005.0" r="2.5" fill="black"/>
  <text x="592.0" y="1001.0"
        font-family="monospace" font-size="9" fill="#333">S</text>
  <circle cx="60.0" cy="1053.0" r="2.5" fill="black"/>
  <text x="64.0" y="1049.0"
        font-family="monospace" font-size="9" fill="#333">E</text>
  <circle cx="540.0" cy="1005.0" r="2.5" fill="black"/>
  <text x="544.0" y="1001.0"
        font-family="monospace" font-size="9" fill="#333">T</text>
  <circle cx="60.0" cy="1149.0" r="2.5" fill="black"/>
  <text x="64.0" y="1145.0"
        font-family="monospace" font-size="9" fill="#333">V</text>
  <circle cx="516.0" cy="1740.0" r="2.5" fill="black"/>
  <text x="520.0" y="1736.0"
        font-family="monospace" font-size="9" fill="#333">F</text>
  <circle cx="660.0" cy="1740.0" r="2.5" fill="black"/>
  <text x="664.0" y="1736.0"
        font-family="monospace" font-size="9" fill="#333">G</text>
  <circle cx="588.0" cy="1101.0" r="2.5" fill="black"/>
  <text x="592.0" y="1097.0"
        font-family="monospace" font-size="9" fill="#333">W</text>
</svg>