<?xml version="1.0" encoding="UTF-8"?>
<svg xmlns="http://www.w3.org/2000/svg"
     width="1968" height="1821"
     viewBox="0 0 1968 1821">
  <rect width="100%" height="100%" fill="white"/>
  <defs>
    <clipPath id="bodice-clip">
      <path d="M 132.00,1654.32 L 132.00,176.86 Q 357.33,176.86 372.00,128.86 L 876.95,283.15 L 875.04,289.96 L 873.03,296.75 L 870.94,303.53 L 868.78,310.31 L 866.56,317.07 L 864.27,323.83 L 861.93,330.58 L 859.55,337.32 L 857.13,344.06 L 854.68,350.80 L 852.21,357.53 L 849.72,364.26 L 847.23,370.99 L 844.74,377.72 L 842.25,384.45 L 839.78,391.18 L 837.33,397.92 L 834.91,404.66 L 832.53,411.40 L 830.19,418.15 L 827.91,424.91 L 825.68,431.67 L 823.52,438.45 L 821.43,445.23 L 819.43,452.02 L 817.51,458.83 L 815.69,465.65 L 813.97,472.48 L 812.36,479.33 L 810.87,486.20 L 809.51,493.08 L 808.28,499.98 L 807.19,506.90 L 806.24,513.83 L 805.46,520.79 L 804.83,527.77 L 804.37,534.78 L 804.09,541.80 L 804.00,548.86 L 804.11,569.95 L 804.43,590.33 L 804.98,609.98 L 805.76,628.93 L 806.78,647.19 L 808.03,664.76 L 809.53,681.65 L 811.28,697.87 L 813.29,713.44 L 815.56,728.35 L 818.10,742.63 L 820.91,756.28 L 824.00,769.30 L 827.37,781.72 L 831.04,793.53 L 834.99,804.75 L 839.25,815.38 L 843.82,825.44 L 848.69,834.94 L 853.89,843.88 L 859.40,852.28 L 865.24,860.14 L 871.42,867.48 L 877.93,874.29 L 884.79,880.60 L 892.00,886.41 L 899.56,891.73 L 907.49,896.58 L 915.78,900.95 L 924.44,904.86 L 933.47,908.31 L 942.89,911.33 L 952.70,913.92 L 962.90,916.08 L 973.50,917.82 L 984.51,919.16 L 995.92,920.11 L 1007.75,920.67 L 1020.00,920.86 L 876.00,1654.32 L 480.00,1654.32 L 432.00,920.86 L 384.00,1654.32 L 132.00,1654.32 Z"/>
    </clipPath>
  </defs>
  <path d="M 393.04,60.00 L 897.99,214.29" fill="none" stroke="#2255aa"        stroke-width="0.75" stroke-dasharray="2 2" opacity="0.5"        stroke-linecap="round"/>
  <path d="M 1090.65,934.73 L 935.24,1726.32 L 480.00,1726.32" fill="none" stroke="#2255aa"        stroke-width="0.75" stroke-dasharray="2 2" opacity="0.5"        stroke-linecap="round"/>
  <path d="M 384.00,1726.32 L 60.00,1726.32 L 60.00,176.86" fill="none" stroke="#2255aa"        stroke-width="0.75" stroke-dasharray="2 2" opacity="0.5"        stroke-linecap="round"/>
  <path d="M 132.00,1654.32 L 132.00,176.86 Q 357.33,176.86 372.00,128.86 L 876.95,283.15 L 875.04,289.96 L 873.03,296.75 L 870.94,303.53 L 868.78,310.31 L 866.56,317.07 L 864.27,323.83 L 861.93,330.58 L 859.55,337.32 L 857.13,344.06 L 854.68,350.80 L 852.21,357.53 L 849.72,364.26 L 847.23,370.99 L 844.74,377.72 L 842.25,384.45 L 839.78,391.18 L 837.33,397.92 L 834.91,404.66 L 832.53,411.40 L 830.19,418.15 L 827.91,424.91 L 825.68,431.67 L 823.52,438.45 L 821.43,445.23 L 819.43,452.02 L 817.51,458.83 L 815.69,465.65 L 813.97,472.48 L 812.36,479.33 L 810.87,486.20 L 809.51,493.08 L 808.28,499.98 L 807.19,506.90 L 806.24,513.83 L 805.46,520.79 L 804.83,527.77 L 804.37,534.78 L 804.09,541.80 L 804.00,548.86 L 804.11,569.95 L 804.43,590.33 L 804.98,609.98 L 805.76,628.93 L 806.78,647.19 L 808.03,664.76 L 809.53,681.65 L 811.28,697.87 L 813.29,713.44 L 815.56,728.35 L 818.10,742.63 L 820.91,756.28 L 824.00,769.30 L 827.37,781.72 L 831.04,793.53 L 834.99,804.75 L 839.25,815.38 L 843.82,825.44 L 848.69,834.94 L 853.89,843.88 L 859.40,852.28 L 865.24,860.14 L 871.42,867.48 L 877.93,874.29 L 884.79,880.60 L 892.00,886.41 L 899.56,891.73 L 907.49,896.58 L 915.78,900.95 L 924.44,904.86 L 933.47,908.31 L 942.89,911.33 L 952.70,913.92 L 962.90,916.08 L 973.50,917.82 L 984.51,919.16 L 995.92,920.11 L 1007.75,920.67 L 1020.00,920.86 L 876.00,1654.32 L 480.00,1654.32 L 432.00,920.86 L 384.00,1654.32 L 132.00,1654.32 Z" fill="#dce8f5" stroke="none" opacity="0.85"/>
  <g clip-path="url(#bodice-clip)">
    <line x1="1020.0" y1="176.9" x2="1020.0" y2="1760.9"          stroke="#aaa" stroke-width="0.75" stroke-dasharray="4 3"/>
    <line x1="132.0" y1="548.9" x2="1908.0" y2="548.9"          stroke="#aaa" stroke-width="0.75" stroke-dasharray="4 3"/>
    <line x1="132.0" y1="920.9" x2="1908.0" y2="920.9"          stroke="#aaa" stroke-width="0.75" stroke-dasharray="4 3"/>
    <line x1="132.0" y1="1654.3" x2="876.0" y2="1654.3"          stroke="#aaa" stroke-width="0.75" stroke-dasharray="4 3"/>
  </g>
  <g>
    <line x1="384.0" y1="1654.3" x2="480.0" y2="1654.3"          stroke="#bbb" stroke-width="0.75" stroke-dasharray="4 3"/>
    <line x1="432.0" y1="920.9" x2="432.0" y2="1654.3"          stroke="#bbb" stroke-width="0.75" stroke-dasharray="4 3"/>
  </g>
  <path d="M 132.00,1654.32 L 132.00,176.86 M 132.00,176.86 Q 357.33,176.86 372.00,128.86 M 372.00,128.86 L 876.95,283.15 M 876.95,283.15 L 875.04,289.96 L 873.03,296.75 L 870.94,303.53 L 868.78,310.31 L 866.56,317.07 L 864.27,323.83 L 861.93,330.58 L 859.55,337.32 L 857.13,344.06 L 854.68,350.80 L 852.21,357.53 L 849.72,364.26 L 847.23,370.99 L 844.74,377.72 L 842.25,384.45 L 839.78,391.18 L 837.33,397.92 L 834.91,404.66 L 832.53,411.40 L 830.19,418.15 L 827.91,424.91 L 825.68,431.67 L 823.52,438.45 L 821.43,445.23 L 819.43,452.02 L 817.51,458.83 L 815.69,465.65 L 813.97,472.48 L 812.36,479.33 L 810.87,486.20 L 809.51,493.08 L 808.28,499.98 L 807.19,506.90 L 806.24,513.83 L 805.46,520.79 L 804.83,527.77 L 804.37,534.78 L 804.09,541.80 L 804.00,548.86 M 804.00,548.86 L 804.11,569.95 L 804.43,590.33 L 804.98,609.98 L 805.76,628.93 L 806.78,647.19 L 808.03,664.76 L 809.53,681.65 L 811.28,697.87 L 813.29,713.44 L 815.56,728.35 L 818.10,742.63 L 820.91,756.28 L 824.00,769.30 L 827.37,781.72 L 831.04,793.53 L 834.99,804.75 L 839.25,815.38 L 843.82,825.44 L 848.69,834.94 L 853.89,843.88 L 859.40,852.28 L 865.24,860.14 L 871.42,867.48 L 877.93,874.29 L 884.79,880.60 L 892.00,886.41 L 899.56,891.73 L 907.49,896.58 L 915.78,900.95 L 924.44,904.86 L 933.47,908.31 L 942.89,911.33 L 952.70,913.92 L 962.90,916.08 L 973.50,917.82 L 984.51,919.16 L 995.92,920.11 L 1007.75,920.67 L 1020.00,920.86 M 1020.00,920.86 L 876.00,1654.32 M 876.00,1654.32 L 480.00,1654.32 M 384.00,1654.32 L 132.00,1654.32" fill="none" stroke="#2255aa"        stroke-width="1.5" stroke-linejoin="round"/>
  <path d="M 480.00,1654.32 L 432.00,920.86 M 432.00,920.86 L 384.00,1654.32" fill="none" stroke="#bbb"        stroke-width="1" stroke-linejoin="round"/>
  <g clip-path="url(#bodice-clip)">
    <circle cx="132.0" cy="1760.9" r="3"            fill="white" stroke="#888" stroke-width="1"/>
    <circle cx="1908.0" cy="176.9" r="3"            fill="white" stroke="#888" stroke-width="1"/>
    <circle cx="1020.0" cy="176.9" r="3"            fill="white" stroke="#888" stroke-width="1"/>
    <circle cx="1020.0" cy="1760.9" r="3"            fill="white" stroke="#888" stroke-width="1"/>
    <circle cx="132.0" cy="548.9" r="3"            fill="white" stroke="#888" stroke-width="1"/>
    <circle cx="1908.0" cy="548.9" r="3"            fill="white" stroke="#888" stroke-width="1"/>
    <circle cx="132.0" cy="920.9" r="3"            fill="white" stroke="#888" stroke-width="1"/>
    <circle cx="1908.0" cy="920.9" r="3"            fill="white" stroke="#888" stroke-width="1"/>
    <circle cx="1397.5" cy="218.9" r="3"            fill="white" stroke="#888" stroke-width="1"/>
    <circle cx="1020.0" cy="1161.1" r="3"            fill="white" stroke="#888" stroke-width="1"/>
    <circle cx="876.0" cy="1760.9" r="3"            fill="white" stroke="#888" stroke-width="1"/>
    <circle cx="804.0" cy="260.9" r="3"            fill="white" stroke="#888" stroke-width="1"/>
    <circle cx="132.0" cy="176.9" r="2.5" fill="black"/>
    <circle cx="132.0" cy="1654.3" r="2.5" fill="black"/>
    <circle cx="372.0" cy="128.9" r="2.5" fill="black"/>
    <circle cx="877.0" cy="283.1" r="2.5" fill="black"/>
    <circle cx="804.0" cy="548.9" r="2.5" fill="black"/>
    <circle cx="1020.0" cy="920.9" r="2.5" fill="black"/>
    <circle cx="876.0" cy="1654.3" r="2.5" fill="black"/>
    <circle cx="384.0" cy="1654.3" r="2.5" fill="black"/>
    <circle cx="480.0" cy="1654.3" r="2.5" fill="black"/>
    <circle cx="432.0" cy="920.9" r="2.5" fill="black"/>
  </g>
  <text x="146.1" y="191.0"        font-family="monospace" font-size="11"        fill="#222" font-weight="bold"        text-anchor="middle" dominant-baseline="middle">A</text>
  <text x="146.1" y="1640.2"        font-family="monospace" font-size="11"        fill="#222" font-weight="bold"        text-anchor="middle" dominant-baseline="middle">GG</text>
  <text x="381.4" y="146.5"        font-family="monospace" font-size="11"        fill="#222" font-weight="bold"        text-anchor="middle" dominant-baseline="middle">AA</text>
  <text x="859.3" y="292.6"        font-family="monospace" font-size="11"        fill="#222" font-weight="bold"        text-anchor="middle" dominant-baseline="middle">DD</text>
  <text x="784.0" y="548.6"        font-family="monospace" font-size="11"        fill="#222" font-weight="bold"        text-anchor="middle" dominant-baseline="middle">BB</text>
  <text x="1000.1" y="918.7"        font-family="monospace" font-size="11"        fill="#222" font-weight="bold"        text-anchor="middle" dominant-baseline="middle">O</text>
  <text x="863.3" y="1638.9"        font-family="monospace" font-size="11"        fill="#222" font-weight="bold"        text-anchor="middle" dominant-baseline="middle">FF</text>
  <text x="370.3" y="1639.7"        font-family="monospace" font-size="11"        fill="#222" font-weight="bold"        text-anchor="middle" dominant-baseline="middle">XX</text>
  <text x="493.7" y="1639.7"        font-family="monospace" font-size="11"        fill="#222" font-weight="bold"        text-anchor="middle" dominant-baseline="middle">YY</text>
  <text x="432.0" y="900.9"        font-family="monospace" font-size="11"        fill="#222" font-weight="bold"        text-anchor="middle" dominant-baseline="middle">ZZ</text>
</svg>